<?xml version="1.0" encoding="utf-8" standalone="no"?>
<!DOCTYPE svg PUBLIC "-//W3C//DTD SVG 1.1//EN"
  "http://www.w3.org/Graphics/SVG/1.1/DTD/svg11.dtd">
<!-- Created with matplotlib (https://matplotlib.org/) -->
<svg height="288pt" version="1.1" viewBox="0 0 432 288" width="432pt" xmlns="http://www.w3.org/2000/svg" xmlns:xlink="http://www.w3.org/1999/xlink">
 <defs>
  <style type="text/css">
*{stroke-linecap:butt;stroke-linejoin:round;white-space:pre;}
  </style>
 </defs>
 <g id="figure_1">
  <g id="patch_1">
   <path d="M 0 288 
L 432 288 
L 432 0 
L 0 0 
z
" style="fill:#ffffff;"/>
  </g>
  <g id="axes_1">
   <g id="patch_2">
    <path d="M 54 252 
L 388.8 252 
L 388.8 34.56 
L 54 34.56 
z
" style="fill:#eaeaf2;"/>
   </g>
   <g id="matplotlib.axis_1">
    <g id="xtick_1">
     <g id="line2d_1">
      <path clip-path="url(#pb52616a63c)" d="M 54 252 
L 54 34.56 
" style="fill:none;stroke:#ffffff;stroke-linecap:round;"/>
     </g>
     <g id="text_1">
      <!-- 22 -->
      <defs>
       <path d="M 50.34375 8.453125 
L 50.34375 0 
L 3.03125 0 
Q 2.9375 3.171875 4.046875 6.109375 
Q 5.859375 10.9375 9.828125 15.625 
Q 13.8125 20.3125 21.34375 26.46875 
Q 33.015625 36.03125 37.109375 41.625 
Q 41.21875 47.21875 41.21875 52.203125 
Q 41.21875 57.421875 37.46875 61 
Q 33.734375 64.59375 27.734375 64.59375 
Q 21.390625 64.59375 17.578125 60.78125 
Q 13.765625 56.984375 13.71875 50.25 
L 4.6875 51.171875 
Q 5.609375 61.28125 11.65625 66.578125 
Q 17.71875 71.875 27.9375 71.875 
Q 38.234375 71.875 44.234375 66.15625 
Q 50.25 60.453125 50.25 52 
Q 50.25 47.703125 48.484375 43.546875 
Q 46.734375 39.40625 42.65625 34.8125 
Q 38.578125 30.21875 29.109375 22.21875 
Q 21.1875 15.578125 18.9375 13.203125 
Q 16.703125 10.84375 15.234375 8.453125 
z
" id="ArialMT-50"/>
      </defs>
      <g style="fill:#262626;" transform="translate(47.882969 269.373594)scale(0.11 -0.11)">
       <use xlink:href="#ArialMT-50"/>
       <use x="55.615234" xlink:href="#ArialMT-50"/>
      </g>
     </g>
    </g>
    <g id="xtick_2">
     <g id="line2d_2">
      <path clip-path="url(#pb52616a63c)" d="M 79.753846 252 
L 79.753846 34.56 
" style="fill:none;stroke:#ffffff;stroke-linecap:round;"/>
     </g>
     <g id="text_2">
      <!-- 23 -->
      <defs>
       <path d="M 4.203125 18.890625 
L 12.984375 20.0625 
Q 14.5 12.59375 18.140625 9.296875 
Q 21.78125 6 27 6 
Q 33.203125 6 37.46875 10.296875 
Q 41.75 14.59375 41.75 20.953125 
Q 41.75 27 37.796875 30.921875 
Q 33.84375 34.859375 27.734375 34.859375 
Q 25.25 34.859375 21.53125 33.890625 
L 22.515625 41.609375 
Q 23.390625 41.5 23.921875 41.5 
Q 29.546875 41.5 34.03125 44.421875 
Q 38.53125 47.359375 38.53125 53.46875 
Q 38.53125 58.296875 35.25 61.46875 
Q 31.984375 64.65625 26.8125 64.65625 
Q 21.6875 64.65625 18.265625 61.421875 
Q 14.84375 58.203125 13.875 51.765625 
L 5.078125 53.328125 
Q 6.6875 62.15625 12.390625 67.015625 
Q 18.109375 71.875 26.609375 71.875 
Q 32.46875 71.875 37.390625 69.359375 
Q 42.328125 66.84375 44.9375 62.5 
Q 47.5625 58.15625 47.5625 53.265625 
Q 47.5625 48.640625 45.0625 44.828125 
Q 42.578125 41.015625 37.703125 38.765625 
Q 44.046875 37.3125 47.5625 32.6875 
Q 51.078125 28.078125 51.078125 21.140625 
Q 51.078125 11.765625 44.234375 5.25 
Q 37.40625 -1.265625 26.953125 -1.265625 
Q 17.53125 -1.265625 11.296875 4.34375 
Q 5.078125 9.96875 4.203125 18.890625 
z
" id="ArialMT-51"/>
      </defs>
      <g style="fill:#262626;" transform="translate(73.636815 269.373594)scale(0.11 -0.11)">
       <use xlink:href="#ArialMT-50"/>
       <use x="55.615234" xlink:href="#ArialMT-51"/>
      </g>
     </g>
    </g>
    <g id="xtick_3">
     <g id="line2d_3">
      <path clip-path="url(#pb52616a63c)" d="M 105.507692 252 
L 105.507692 34.56 
" style="fill:none;stroke:#ffffff;stroke-linecap:round;"/>
     </g>
     <g id="text_3">
      <!-- 24 -->
      <defs>
       <path d="M 32.328125 0 
L 32.328125 17.140625 
L 1.265625 17.140625 
L 1.265625 25.203125 
L 33.9375 71.578125 
L 41.109375 71.578125 
L 41.109375 25.203125 
L 50.78125 25.203125 
L 50.78125 17.140625 
L 41.109375 17.140625 
L 41.109375 0 
z
M 32.328125 25.203125 
L 32.328125 57.46875 
L 9.90625 25.203125 
z
" id="ArialMT-52"/>
      </defs>
      <g style="fill:#262626;" transform="translate(99.390661 269.373594)scale(0.11 -0.11)">
       <use xlink:href="#ArialMT-50"/>
       <use x="55.615234" xlink:href="#ArialMT-52"/>
      </g>
     </g>
    </g>
    <g id="xtick_4">
     <g id="line2d_4">
      <path clip-path="url(#pb52616a63c)" d="M 131.261538 252 
L 131.261538 34.56 
" style="fill:none;stroke:#ffffff;stroke-linecap:round;"/>
     </g>
     <g id="text_4">
      <!-- 25 -->
      <defs>
       <path d="M 4.15625 18.75 
L 13.375 19.53125 
Q 14.40625 12.796875 18.140625 9.390625 
Q 21.875 6 27.15625 6 
Q 33.5 6 37.890625 10.78125 
Q 42.28125 15.578125 42.28125 23.484375 
Q 42.28125 31 38.0625 35.34375 
Q 33.84375 39.703125 27 39.703125 
Q 22.75 39.703125 19.328125 37.765625 
Q 15.921875 35.84375 13.96875 32.765625 
L 5.71875 33.84375 
L 12.640625 70.609375 
L 48.25 70.609375 
L 48.25 62.203125 
L 19.671875 62.203125 
L 15.828125 42.96875 
Q 22.265625 47.46875 29.34375 47.46875 
Q 38.71875 47.46875 45.15625 40.96875 
Q 51.609375 34.46875 51.609375 24.265625 
Q 51.609375 14.546875 45.953125 7.46875 
Q 39.0625 -1.21875 27.15625 -1.21875 
Q 17.390625 -1.21875 11.203125 4.25 
Q 5.03125 9.71875 4.15625 18.75 
z
" id="ArialMT-53"/>
      </defs>
      <g style="fill:#262626;" transform="translate(125.144507 269.373594)scale(0.11 -0.11)">
       <use xlink:href="#ArialMT-50"/>
       <use x="55.615234" xlink:href="#ArialMT-53"/>
      </g>
     </g>
    </g>
    <g id="xtick_5">
     <g id="line2d_5">
      <path clip-path="url(#pb52616a63c)" d="M 157.015385 252 
L 157.015385 34.56 
" style="fill:none;stroke:#ffffff;stroke-linecap:round;"/>
     </g>
     <g id="text_5">
      <!-- 26 -->
      <defs>
       <path d="M 49.75 54.046875 
L 41.015625 53.375 
Q 39.84375 58.546875 37.703125 60.890625 
Q 34.125 64.65625 28.90625 64.65625 
Q 24.703125 64.65625 21.53125 62.3125 
Q 17.390625 59.28125 14.984375 53.46875 
Q 12.59375 47.65625 12.5 36.921875 
Q 15.671875 41.75 20.265625 44.09375 
Q 24.859375 46.4375 29.890625 46.4375 
Q 38.671875 46.4375 44.84375 39.96875 
Q 51.03125 33.5 51.03125 23.25 
Q 51.03125 16.5 48.125 10.71875 
Q 45.21875 4.9375 40.140625 1.859375 
Q 35.0625 -1.21875 28.609375 -1.21875 
Q 17.625 -1.21875 10.6875 6.859375 
Q 3.765625 14.9375 3.765625 33.5 
Q 3.765625 54.25 11.421875 63.671875 
Q 18.109375 71.875 29.4375 71.875 
Q 37.890625 71.875 43.28125 67.140625 
Q 48.6875 62.40625 49.75 54.046875 
z
M 13.875 23.1875 
Q 13.875 18.65625 15.796875 14.5 
Q 17.71875 10.359375 21.1875 8.171875 
Q 24.65625 6 28.46875 6 
Q 34.03125 6 38.03125 10.484375 
Q 42.046875 14.984375 42.046875 22.703125 
Q 42.046875 30.125 38.078125 34.390625 
Q 34.125 38.671875 28.125 38.671875 
Q 22.171875 38.671875 18.015625 34.390625 
Q 13.875 30.125 13.875 23.1875 
z
" id="ArialMT-54"/>
      </defs>
      <g style="fill:#262626;" transform="translate(150.898353 269.373594)scale(0.11 -0.11)">
       <use xlink:href="#ArialMT-50"/>
       <use x="55.615234" xlink:href="#ArialMT-54"/>
      </g>
     </g>
    </g>
    <g id="xtick_6">
     <g id="line2d_6">
      <path clip-path="url(#pb52616a63c)" d="M 182.769231 252 
L 182.769231 34.56 
" style="fill:none;stroke:#ffffff;stroke-linecap:round;"/>
     </g>
     <g id="text_6">
      <!-- 27 -->
      <defs>
       <path d="M 4.734375 62.203125 
L 4.734375 70.65625 
L 51.078125 70.65625 
L 51.078125 63.8125 
Q 44.234375 56.546875 37.515625 44.484375 
Q 30.8125 32.421875 27.15625 19.671875 
Q 24.515625 10.6875 23.78125 0 
L 14.75 0 
Q 14.890625 8.453125 18.0625 20.40625 
Q 21.234375 32.375 27.171875 43.484375 
Q 33.109375 54.59375 39.796875 62.203125 
z
" id="ArialMT-55"/>
      </defs>
      <g style="fill:#262626;" transform="translate(176.6522 269.373594)scale(0.11 -0.11)">
       <use xlink:href="#ArialMT-50"/>
       <use x="55.615234" xlink:href="#ArialMT-55"/>
      </g>
     </g>
    </g>
    <g id="xtick_7">
     <g id="line2d_7">
      <path clip-path="url(#pb52616a63c)" d="M 208.523077 252 
L 208.523077 34.56 
" style="fill:none;stroke:#ffffff;stroke-linecap:round;"/>
     </g>
     <g id="text_7">
      <!-- 28 -->
      <defs>
       <path d="M 17.671875 38.8125 
Q 12.203125 40.828125 9.5625 44.53125 
Q 6.9375 48.25 6.9375 53.421875 
Q 6.9375 61.234375 12.546875 66.546875 
Q 18.171875 71.875 27.484375 71.875 
Q 36.859375 71.875 42.578125 66.421875 
Q 48.296875 60.984375 48.296875 53.171875 
Q 48.296875 48.1875 45.671875 44.5 
Q 43.0625 40.828125 37.75 38.8125 
Q 44.34375 36.671875 47.78125 31.875 
Q 51.21875 27.09375 51.21875 20.453125 
Q 51.21875 11.28125 44.71875 5.03125 
Q 38.234375 -1.21875 27.640625 -1.21875 
Q 17.046875 -1.21875 10.546875 5.046875 
Q 4.046875 11.328125 4.046875 20.703125 
Q 4.046875 27.6875 7.59375 32.390625 
Q 11.140625 37.109375 17.671875 38.8125 
z
M 15.921875 53.71875 
Q 15.921875 48.640625 19.1875 45.40625 
Q 22.46875 42.1875 27.6875 42.1875 
Q 32.765625 42.1875 36.015625 45.375 
Q 39.265625 48.578125 39.265625 53.21875 
Q 39.265625 58.0625 35.90625 61.359375 
Q 32.5625 64.65625 27.59375 64.65625 
Q 22.5625 64.65625 19.234375 61.421875 
Q 15.921875 58.203125 15.921875 53.71875 
z
M 13.09375 20.65625 
Q 13.09375 16.890625 14.875 13.375 
Q 16.65625 9.859375 20.171875 7.921875 
Q 23.6875 6 27.734375 6 
Q 34.03125 6 38.125 10.046875 
Q 42.234375 14.109375 42.234375 20.359375 
Q 42.234375 26.703125 38.015625 30.859375 
Q 33.796875 35.015625 27.4375 35.015625 
Q 21.234375 35.015625 17.15625 30.90625 
Q 13.09375 26.8125 13.09375 20.65625 
z
" id="ArialMT-56"/>
      </defs>
      <g style="fill:#262626;" transform="translate(202.406046 269.373594)scale(0.11 -0.11)">
       <use xlink:href="#ArialMT-50"/>
       <use x="55.615234" xlink:href="#ArialMT-56"/>
      </g>
     </g>
    </g>
    <g id="xtick_8">
     <g id="line2d_8">
      <path clip-path="url(#pb52616a63c)" d="M 234.276923 252 
L 234.276923 34.56 
" style="fill:none;stroke:#ffffff;stroke-linecap:round;"/>
     </g>
     <g id="text_8">
      <!-- 29 -->
      <defs>
       <path d="M 5.46875 16.546875 
L 13.921875 17.328125 
Q 14.984375 11.375 18.015625 8.6875 
Q 21.046875 6 25.78125 6 
Q 29.828125 6 32.875 7.859375 
Q 35.9375 9.71875 37.890625 12.8125 
Q 39.84375 15.921875 41.15625 21.1875 
Q 42.484375 26.46875 42.484375 31.9375 
Q 42.484375 32.515625 42.4375 33.6875 
Q 39.796875 29.5 35.234375 26.875 
Q 30.671875 24.265625 25.34375 24.265625 
Q 16.453125 24.265625 10.296875 30.703125 
Q 4.15625 37.15625 4.15625 47.703125 
Q 4.15625 58.59375 10.578125 65.234375 
Q 17 71.875 26.65625 71.875 
Q 33.640625 71.875 39.421875 68.109375 
Q 45.21875 64.359375 48.21875 57.390625 
Q 51.21875 50.4375 51.21875 37.25 
Q 51.21875 23.53125 48.234375 15.40625 
Q 45.265625 7.28125 39.375 3.03125 
Q 33.5 -1.21875 25.59375 -1.21875 
Q 17.1875 -1.21875 11.859375 3.4375 
Q 6.546875 8.109375 5.46875 16.546875 
z
M 41.453125 48.140625 
Q 41.453125 55.71875 37.421875 60.15625 
Q 33.40625 64.59375 27.734375 64.59375 
Q 21.875 64.59375 17.53125 59.8125 
Q 13.1875 55.03125 13.1875 47.40625 
Q 13.1875 40.578125 17.3125 36.296875 
Q 21.4375 32.03125 27.484375 32.03125 
Q 33.59375 32.03125 37.515625 36.296875 
Q 41.453125 40.578125 41.453125 48.140625 
z
" id="ArialMT-57"/>
      </defs>
      <g style="fill:#262626;" transform="translate(228.159892 269.373594)scale(0.11 -0.11)">
       <use xlink:href="#ArialMT-50"/>
       <use x="55.615234" xlink:href="#ArialMT-57"/>
      </g>
     </g>
    </g>
    <g id="xtick_9">
     <g id="line2d_9">
      <path clip-path="url(#pb52616a63c)" d="M 260.030769 252 
L 260.030769 34.56 
" style="fill:none;stroke:#ffffff;stroke-linecap:round;"/>
     </g>
     <g id="text_9">
      <!-- 30 -->
      <defs>
       <path d="M 4.15625 35.296875 
Q 4.15625 48 6.765625 55.734375 
Q 9.375 63.484375 14.515625 67.671875 
Q 19.671875 71.875 27.484375 71.875 
Q 33.25 71.875 37.59375 69.546875 
Q 41.9375 67.234375 44.765625 62.859375 
Q 47.609375 58.5 49.21875 52.21875 
Q 50.828125 45.953125 50.828125 35.296875 
Q 50.828125 22.703125 48.234375 14.96875 
Q 45.65625 7.234375 40.5 3 
Q 35.359375 -1.21875 27.484375 -1.21875 
Q 17.140625 -1.21875 11.234375 6.203125 
Q 4.15625 15.140625 4.15625 35.296875 
z
M 13.1875 35.296875 
Q 13.1875 17.671875 17.3125 11.828125 
Q 21.4375 6 27.484375 6 
Q 33.546875 6 37.671875 11.859375 
Q 41.796875 17.71875 41.796875 35.296875 
Q 41.796875 52.984375 37.671875 58.78125 
Q 33.546875 64.59375 27.390625 64.59375 
Q 21.34375 64.59375 17.71875 59.46875 
Q 13.1875 52.9375 13.1875 35.296875 
z
" id="ArialMT-48"/>
      </defs>
      <g style="fill:#262626;" transform="translate(253.913738 269.373594)scale(0.11 -0.11)">
       <use xlink:href="#ArialMT-51"/>
       <use x="55.615234" xlink:href="#ArialMT-48"/>
      </g>
     </g>
    </g>
    <g id="xtick_10">
     <g id="line2d_10">
      <path clip-path="url(#pb52616a63c)" d="M 285.784615 252 
L 285.784615 34.56 
" style="fill:none;stroke:#ffffff;stroke-linecap:round;"/>
     </g>
     <g id="text_10">
      <!-- 31 -->
      <defs>
       <path d="M 37.25 0 
L 28.46875 0 
L 28.46875 56 
Q 25.296875 52.984375 20.140625 49.953125 
Q 14.984375 46.921875 10.890625 45.40625 
L 10.890625 53.90625 
Q 18.265625 57.375 23.78125 62.296875 
Q 29.296875 67.234375 31.59375 71.875 
L 37.25 71.875 
z
" id="ArialMT-49"/>
      </defs>
      <g style="fill:#262626;" transform="translate(279.667584 269.373594)scale(0.11 -0.11)">
       <use xlink:href="#ArialMT-51"/>
       <use x="55.615234" xlink:href="#ArialMT-49"/>
      </g>
     </g>
    </g>
    <g id="xtick_11">
     <g id="line2d_11">
      <path clip-path="url(#pb52616a63c)" d="M 311.538462 252 
L 311.538462 34.56 
" style="fill:none;stroke:#ffffff;stroke-linecap:round;"/>
     </g>
     <g id="text_11">
      <!-- 32 -->
      <g style="fill:#262626;" transform="translate(305.42143 269.373594)scale(0.11 -0.11)">
       <use xlink:href="#ArialMT-51"/>
       <use x="55.615234" xlink:href="#ArialMT-50"/>
      </g>
     </g>
    </g>
    <g id="xtick_12">
     <g id="line2d_12">
      <path clip-path="url(#pb52616a63c)" d="M 337.292308 252 
L 337.292308 34.56 
" style="fill:none;stroke:#ffffff;stroke-linecap:round;"/>
     </g>
     <g id="text_12">
      <!-- 33 -->
      <g style="fill:#262626;" transform="translate(331.175276 269.373594)scale(0.11 -0.11)">
       <use xlink:href="#ArialMT-51"/>
       <use x="55.615234" xlink:href="#ArialMT-51"/>
      </g>
     </g>
    </g>
    <g id="xtick_13">
     <g id="line2d_13">
      <path clip-path="url(#pb52616a63c)" d="M 363.046154 252 
L 363.046154 34.56 
" style="fill:none;stroke:#ffffff;stroke-linecap:round;"/>
     </g>
     <g id="text_13">
      <!-- 34 -->
      <g style="fill:#262626;" transform="translate(356.929123 269.373594)scale(0.11 -0.11)">
       <use xlink:href="#ArialMT-51"/>
       <use x="55.615234" xlink:href="#ArialMT-52"/>
      </g>
     </g>
    </g>
    <g id="xtick_14">
     <g id="line2d_14">
      <path clip-path="url(#pb52616a63c)" d="M 388.8 252 
L 388.8 34.56 
" style="fill:none;stroke:#ffffff;stroke-linecap:round;"/>
     </g>
     <g id="text_14">
      <!-- 35 -->
      <g style="fill:#262626;" transform="translate(382.682969 269.373594)scale(0.11 -0.11)">
       <use xlink:href="#ArialMT-51"/>
       <use x="55.615234" xlink:href="#ArialMT-53"/>
      </g>
     </g>
    </g>
    <g id="text_15">
     <!-- SNR (dB) -->
     <defs>
      <path d="M 4.5 23 
L 13.421875 23.78125 
Q 14.0625 18.40625 16.375 14.96875 
Q 18.703125 11.53125 23.578125 9.40625 
Q 28.46875 7.28125 34.578125 7.28125 
Q 39.984375 7.28125 44.140625 8.890625 
Q 48.296875 10.5 50.3125 13.296875 
Q 52.34375 16.109375 52.34375 19.4375 
Q 52.34375 22.796875 50.390625 25.3125 
Q 48.4375 27.828125 43.953125 29.546875 
Q 41.0625 30.671875 31.203125 33.03125 
Q 21.34375 35.40625 17.390625 37.5 
Q 12.25 40.1875 9.734375 44.15625 
Q 7.234375 48.140625 7.234375 53.078125 
Q 7.234375 58.5 10.296875 63.203125 
Q 13.375 67.921875 19.28125 70.359375 
Q 25.203125 72.796875 32.421875 72.796875 
Q 40.375 72.796875 46.453125 70.234375 
Q 52.546875 67.671875 55.8125 62.6875 
Q 59.078125 57.71875 59.328125 51.421875 
L 50.25 50.734375 
Q 49.515625 57.515625 45.28125 60.984375 
Q 41.0625 64.453125 32.8125 64.453125 
Q 24.21875 64.453125 20.28125 61.296875 
Q 16.359375 58.15625 16.359375 53.71875 
Q 16.359375 49.859375 19.140625 47.359375 
Q 21.875 44.875 33.421875 42.265625 
Q 44.96875 39.65625 49.265625 37.703125 
Q 55.515625 34.8125 58.484375 30.390625 
Q 61.46875 25.984375 61.46875 20.21875 
Q 61.46875 14.5 58.203125 9.4375 
Q 54.9375 4.390625 48.796875 1.578125 
Q 42.671875 -1.21875 35.015625 -1.21875 
Q 25.296875 -1.21875 18.71875 1.609375 
Q 12.15625 4.4375 8.421875 10.125 
Q 4.6875 15.828125 4.5 23 
z
" id="ArialMT-83"/>
      <path d="M 7.625 0 
L 7.625 71.578125 
L 17.328125 71.578125 
L 54.9375 15.375 
L 54.9375 71.578125 
L 64.015625 71.578125 
L 64.015625 0 
L 54.296875 0 
L 16.703125 56.25 
L 16.703125 0 
z
" id="ArialMT-78"/>
      <path d="M 7.859375 0 
L 7.859375 71.578125 
L 39.59375 71.578125 
Q 49.171875 71.578125 54.140625 69.640625 
Q 59.125 67.71875 62.109375 62.828125 
Q 65.09375 57.953125 65.09375 52.046875 
Q 65.09375 44.4375 60.15625 39.203125 
Q 55.21875 33.984375 44.921875 32.5625 
Q 48.6875 30.765625 50.640625 29 
Q 54.78125 25.203125 58.5 19.484375 
L 70.953125 0 
L 59.03125 0 
L 49.5625 14.890625 
Q 45.40625 21.34375 42.71875 24.75 
Q 40.046875 28.171875 37.921875 29.53125 
Q 35.796875 30.90625 33.59375 31.453125 
Q 31.984375 31.78125 28.328125 31.78125 
L 17.328125 31.78125 
L 17.328125 0 
z
M 17.328125 39.984375 
L 37.703125 39.984375 
Q 44.1875 39.984375 47.84375 41.328125 
Q 51.515625 42.671875 53.421875 45.625 
Q 55.328125 48.578125 55.328125 52.046875 
Q 55.328125 57.125 51.640625 60.390625 
Q 47.953125 63.671875 39.984375 63.671875 
L 17.328125 63.671875 
z
" id="ArialMT-82"/>
      <path id="ArialMT-32"/>
      <path d="M 23.390625 -21.046875 
Q 16.109375 -11.859375 11.078125 0.4375 
Q 6.0625 12.75 6.0625 25.921875 
Q 6.0625 37.546875 9.8125 48.1875 
Q 14.203125 60.546875 23.390625 72.796875 
L 29.6875 72.796875 
Q 23.78125 62.640625 21.875 58.296875 
Q 18.890625 51.5625 17.1875 44.234375 
Q 15.09375 35.109375 15.09375 25.875 
Q 15.09375 2.390625 29.6875 -21.046875 
z
" id="ArialMT-40"/>
      <path d="M 40.234375 0 
L 40.234375 6.546875 
Q 35.296875 -1.171875 25.734375 -1.171875 
Q 19.53125 -1.171875 14.328125 2.25 
Q 9.125 5.671875 6.265625 11.796875 
Q 3.421875 17.921875 3.421875 25.875 
Q 3.421875 33.640625 6 39.96875 
Q 8.59375 46.296875 13.765625 49.65625 
Q 18.953125 53.03125 25.34375 53.03125 
Q 30.03125 53.03125 33.6875 51.046875 
Q 37.359375 49.078125 39.65625 45.90625 
L 39.65625 71.578125 
L 48.390625 71.578125 
L 48.390625 0 
z
M 12.453125 25.875 
Q 12.453125 15.921875 16.640625 10.984375 
Q 20.84375 6.0625 26.5625 6.0625 
Q 32.328125 6.0625 36.34375 10.765625 
Q 40.375 15.484375 40.375 25.140625 
Q 40.375 35.796875 36.265625 40.765625 
Q 32.171875 45.75 26.171875 45.75 
Q 20.3125 45.75 16.375 40.96875 
Q 12.453125 36.1875 12.453125 25.875 
z
" id="ArialMT-100"/>
      <path d="M 7.328125 0 
L 7.328125 71.578125 
L 34.1875 71.578125 
Q 42.390625 71.578125 47.34375 69.40625 
Q 52.296875 67.234375 55.09375 62.71875 
Q 57.90625 58.203125 57.90625 53.265625 
Q 57.90625 48.6875 55.421875 44.625 
Q 52.9375 40.578125 47.90625 38.09375 
Q 54.390625 36.1875 57.875 31.59375 
Q 61.375 27 61.375 20.75 
Q 61.375 15.71875 59.25 11.390625 
Q 57.125 7.078125 54 4.734375 
Q 50.875 2.390625 46.15625 1.1875 
Q 41.453125 0 34.625 0 
z
M 16.796875 41.5 
L 32.28125 41.5 
Q 38.578125 41.5 41.3125 42.328125 
Q 44.921875 43.40625 46.75 45.890625 
Q 48.578125 48.390625 48.578125 52.15625 
Q 48.578125 55.71875 46.875 58.421875 
Q 45.171875 61.140625 41.984375 62.140625 
Q 38.8125 63.140625 31.109375 63.140625 
L 16.796875 63.140625 
z
M 16.796875 8.453125 
L 34.625 8.453125 
Q 39.203125 8.453125 41.0625 8.796875 
Q 44.34375 9.375 46.53125 10.734375 
Q 48.734375 12.109375 50.140625 14.71875 
Q 51.5625 17.328125 51.5625 20.75 
Q 51.5625 24.75 49.515625 27.703125 
Q 47.46875 30.671875 43.828125 31.859375 
Q 40.1875 33.0625 33.34375 33.0625 
L 16.796875 33.0625 
z
" id="ArialMT-66"/>
      <path d="M 12.359375 -21.046875 
L 6.0625 -21.046875 
Q 20.65625 2.390625 20.65625 25.875 
Q 20.65625 35.0625 18.5625 44.09375 
Q 16.890625 51.421875 13.921875 58.15625 
Q 12.015625 62.546875 6.0625 72.796875 
L 12.359375 72.796875 
Q 21.53125 60.546875 25.921875 48.1875 
Q 29.6875 37.546875 29.6875 25.921875 
Q 29.6875 12.75 24.625 0.4375 
Q 19.578125 -11.859375 12.359375 -21.046875 
z
" id="ArialMT-41"/>
     </defs>
     <g style="fill:#262626;" transform="translate(195.730312 284.295469)scale(0.12 -0.12)">
      <use xlink:href="#ArialMT-83"/>
      <use x="66.699219" xlink:href="#ArialMT-78"/>
      <use x="138.916016" xlink:href="#ArialMT-82"/>
      <use x="211.132812" xlink:href="#ArialMT-32"/>
      <use x="238.916016" xlink:href="#ArialMT-40"/>
      <use x="272.216797" xlink:href="#ArialMT-100"/>
      <use x="327.832031" xlink:href="#ArialMT-66"/>
      <use x="394.53125" xlink:href="#ArialMT-41"/>
     </g>
    </g>
   </g>
   <g id="matplotlib.axis_2">
    <g id="ytick_1">
     <g id="line2d_15">
      <path clip-path="url(#pb52616a63c)" d="M 54 252 
L 388.8 252 
" style="fill:none;stroke:#ffffff;stroke-linecap:round;"/>
     </g>
     <g id="text_16">
      <!-- 0.0 -->
      <defs>
       <path d="M 9.078125 0 
L 9.078125 10.015625 
L 19.09375 10.015625 
L 19.09375 0 
z
" id="ArialMT-46"/>
      </defs>
      <g style="fill:#262626;" transform="translate(29.21 255.936797)scale(0.11 -0.11)">
       <use xlink:href="#ArialMT-48"/>
       <use x="55.615234" xlink:href="#ArialMT-46"/>
       <use x="83.398438" xlink:href="#ArialMT-48"/>
      </g>
     </g>
    </g>
    <g id="ytick_2">
     <g id="line2d_16">
      <path clip-path="url(#pb52616a63c)" d="M 54 229.35 
L 388.8 229.35 
" style="fill:none;stroke:#ffffff;stroke-linecap:round;"/>
     </g>
     <g id="text_17">
      <!-- 0.5 -->
      <g style="fill:#262626;" transform="translate(29.21 233.286797)scale(0.11 -0.11)">
       <use xlink:href="#ArialMT-48"/>
       <use x="55.615234" xlink:href="#ArialMT-46"/>
       <use x="83.398438" xlink:href="#ArialMT-53"/>
      </g>
     </g>
    </g>
    <g id="ytick_3">
     <g id="line2d_17">
      <path clip-path="url(#pb52616a63c)" d="M 54 206.7 
L 388.8 206.7 
" style="fill:none;stroke:#ffffff;stroke-linecap:round;"/>
     </g>
     <g id="text_18">
      <!-- 1.0 -->
      <g style="fill:#262626;" transform="translate(29.21 210.636797)scale(0.11 -0.11)">
       <use xlink:href="#ArialMT-49"/>
       <use x="55.615234" xlink:href="#ArialMT-46"/>
       <use x="83.398438" xlink:href="#ArialMT-48"/>
      </g>
     </g>
    </g>
    <g id="ytick_4">
     <g id="line2d_18">
      <path clip-path="url(#pb52616a63c)" d="M 54 184.05 
L 388.8 184.05 
" style="fill:none;stroke:#ffffff;stroke-linecap:round;"/>
     </g>
     <g id="text_19">
      <!-- 1.5 -->
      <g style="fill:#262626;" transform="translate(29.21 187.986797)scale(0.11 -0.11)">
       <use xlink:href="#ArialMT-49"/>
       <use x="55.615234" xlink:href="#ArialMT-46"/>
       <use x="83.398438" xlink:href="#ArialMT-53"/>
      </g>
     </g>
    </g>
    <g id="ytick_5">
     <g id="line2d_19">
      <path clip-path="url(#pb52616a63c)" d="M 54 161.4 
L 388.8 161.4 
" style="fill:none;stroke:#ffffff;stroke-linecap:round;"/>
     </g>
     <g id="text_20">
      <!-- 2.0 -->
      <g style="fill:#262626;" transform="translate(29.21 165.336797)scale(0.11 -0.11)">
       <use xlink:href="#ArialMT-50"/>
       <use x="55.615234" xlink:href="#ArialMT-46"/>
       <use x="83.398438" xlink:href="#ArialMT-48"/>
      </g>
     </g>
    </g>
    <g id="ytick_6">
     <g id="line2d_20">
      <path clip-path="url(#pb52616a63c)" d="M 54 138.75 
L 388.8 138.75 
" style="fill:none;stroke:#ffffff;stroke-linecap:round;"/>
     </g>
     <g id="text_21">
      <!-- 2.5 -->
      <g style="fill:#262626;" transform="translate(29.21 142.686797)scale(0.11 -0.11)">
       <use xlink:href="#ArialMT-50"/>
       <use x="55.615234" xlink:href="#ArialMT-46"/>
       <use x="83.398438" xlink:href="#ArialMT-53"/>
      </g>
     </g>
    </g>
    <g id="ytick_7">
     <g id="line2d_21">
      <path clip-path="url(#pb52616a63c)" d="M 54 116.1 
L 388.8 116.1 
" style="fill:none;stroke:#ffffff;stroke-linecap:round;"/>
     </g>
     <g id="text_22">
      <!-- 3.0 -->
      <g style="fill:#262626;" transform="translate(29.21 120.036797)scale(0.11 -0.11)">
       <use xlink:href="#ArialMT-51"/>
       <use x="55.615234" xlink:href="#ArialMT-46"/>
       <use x="83.398438" xlink:href="#ArialMT-48"/>
      </g>
     </g>
    </g>
    <g id="ytick_8">
     <g id="line2d_22">
      <path clip-path="url(#pb52616a63c)" d="M 54 93.45 
L 388.8 93.45 
" style="fill:none;stroke:#ffffff;stroke-linecap:round;"/>
     </g>
     <g id="text_23">
      <!-- 3.5 -->
      <g style="fill:#262626;" transform="translate(29.21 97.386797)scale(0.11 -0.11)">
       <use xlink:href="#ArialMT-51"/>
       <use x="55.615234" xlink:href="#ArialMT-46"/>
       <use x="83.398438" xlink:href="#ArialMT-53"/>
      </g>
     </g>
    </g>
    <g id="ytick_9">
     <g id="line2d_23">
      <path clip-path="url(#pb52616a63c)" d="M 54 70.8 
L 388.8 70.8 
" style="fill:none;stroke:#ffffff;stroke-linecap:round;"/>
     </g>
     <g id="text_24">
      <!-- 4.0 -->
      <g style="fill:#262626;" transform="translate(29.21 74.736797)scale(0.11 -0.11)">
       <use xlink:href="#ArialMT-52"/>
       <use x="55.615234" xlink:href="#ArialMT-46"/>
       <use x="83.398438" xlink:href="#ArialMT-48"/>
      </g>
     </g>
    </g>
    <g id="ytick_10">
     <g id="line2d_24">
      <path clip-path="url(#pb52616a63c)" d="M 54 48.15 
L 388.8 48.15 
" style="fill:none;stroke:#ffffff;stroke-linecap:round;"/>
     </g>
     <g id="text_25">
      <!-- 4.5 -->
      <g style="fill:#262626;" transform="translate(29.21 52.086797)scale(0.11 -0.11)">
       <use xlink:href="#ArialMT-52"/>
       <use x="55.615234" xlink:href="#ArialMT-46"/>
       <use x="83.398438" xlink:href="#ArialMT-53"/>
      </g>
     </g>
    </g>
    <g id="text_26">
     <!-- PESQ (MOS) -->
     <defs>
      <path d="M 7.71875 0 
L 7.71875 71.578125 
L 34.71875 71.578125 
Q 41.84375 71.578125 45.609375 70.90625 
Q 50.875 70.015625 54.4375 67.546875 
Q 58.015625 65.09375 60.1875 60.640625 
Q 62.359375 56.203125 62.359375 50.875 
Q 62.359375 41.75 56.546875 35.421875 
Q 50.734375 29.109375 35.546875 29.109375 
L 17.1875 29.109375 
L 17.1875 0 
z
M 17.1875 37.546875 
L 35.6875 37.546875 
Q 44.875 37.546875 48.734375 40.96875 
Q 52.59375 44.390625 52.59375 50.59375 
Q 52.59375 55.078125 50.3125 58.265625 
Q 48.046875 61.46875 44.34375 62.5 
Q 41.9375 63.140625 35.5 63.140625 
L 17.1875 63.140625 
z
" id="ArialMT-80"/>
      <path d="M 7.90625 0 
L 7.90625 71.578125 
L 59.671875 71.578125 
L 59.671875 63.140625 
L 17.390625 63.140625 
L 17.390625 41.21875 
L 56.984375 41.21875 
L 56.984375 32.8125 
L 17.390625 32.8125 
L 17.390625 8.453125 
L 61.328125 8.453125 
L 61.328125 0 
z
" id="ArialMT-69"/>
      <path d="M 61.96875 7.671875 
Q 68.5625 3.125 74.125 1.03125 
L 71.34375 -5.5625 
Q 63.625 -2.78125 55.953125 3.21875 
Q 48 -1.21875 38.375 -1.21875 
Q 28.65625 -1.21875 20.75 3.46875 
Q 12.84375 8.15625 8.5625 16.640625 
Q 4.296875 25.140625 4.296875 35.796875 
Q 4.296875 46.390625 8.59375 55.078125 
Q 12.890625 63.765625 20.828125 68.3125 
Q 28.765625 72.859375 38.578125 72.859375 
Q 48.484375 72.859375 56.4375 68.140625 
Q 64.40625 63.421875 68.578125 54.953125 
Q 72.75 46.484375 72.75 35.84375 
Q 72.75 27 70.0625 19.9375 
Q 67.390625 12.890625 61.96875 7.671875 
z
M 41.109375 19.78125 
Q 49.3125 17.484375 54.640625 12.9375 
Q 62.984375 20.5625 62.984375 35.84375 
Q 62.984375 44.53125 60.03125 51.015625 
Q 57.078125 57.515625 51.390625 61.109375 
Q 45.703125 64.703125 38.625 64.703125 
Q 28.03125 64.703125 21.046875 57.453125 
Q 14.0625 50.203125 14.0625 35.796875 
Q 14.0625 21.828125 20.96875 14.359375 
Q 27.875 6.890625 38.625 6.890625 
Q 43.703125 6.890625 48.1875 8.796875 
Q 43.75 11.671875 38.8125 12.890625 
z
" id="ArialMT-81"/>
      <path d="M 7.421875 0 
L 7.421875 71.578125 
L 21.6875 71.578125 
L 38.625 20.90625 
Q 40.96875 13.8125 42.046875 10.296875 
Q 43.265625 14.203125 45.84375 21.78125 
L 62.984375 71.578125 
L 75.734375 71.578125 
L 75.734375 0 
L 66.609375 0 
L 66.609375 59.90625 
L 45.796875 0 
L 37.25 0 
L 16.546875 60.9375 
L 16.546875 0 
z
" id="ArialMT-77"/>
      <path d="M 4.828125 34.859375 
Q 4.828125 52.6875 14.390625 62.765625 
Q 23.96875 72.859375 39.109375 72.859375 
Q 49.03125 72.859375 56.984375 68.109375 
Q 64.9375 63.375 69.109375 54.90625 
Q 73.296875 46.4375 73.296875 35.6875 
Q 73.296875 24.8125 68.890625 16.21875 
Q 64.5 7.625 56.4375 3.203125 
Q 48.390625 -1.21875 39.0625 -1.21875 
Q 28.953125 -1.21875 20.984375 3.65625 
Q 13.03125 8.546875 8.921875 16.984375 
Q 4.828125 25.4375 4.828125 34.859375 
z
M 14.59375 34.71875 
Q 14.59375 21.78125 21.546875 14.328125 
Q 28.515625 6.890625 39.015625 6.890625 
Q 49.703125 6.890625 56.609375 14.40625 
Q 63.53125 21.921875 63.53125 35.75 
Q 63.53125 44.484375 60.578125 51 
Q 57.625 57.515625 51.921875 61.109375 
Q 46.234375 64.703125 39.15625 64.703125 
Q 29.109375 64.703125 21.84375 57.78125 
Q 14.59375 50.875 14.59375 34.71875 
z
" id="ArialMT-79"/>
     </defs>
     <g style="fill:#262626;" transform="translate(22.684375 179.282813)rotate(-90)scale(0.12 -0.12)">
      <use xlink:href="#ArialMT-80"/>
      <use x="66.699219" xlink:href="#ArialMT-69"/>
      <use x="133.398438" xlink:href="#ArialMT-83"/>
      <use x="200.097656" xlink:href="#ArialMT-81"/>
      <use x="277.880859" xlink:href="#ArialMT-32"/>
      <use x="305.664062" xlink:href="#ArialMT-40"/>
      <use x="338.964844" xlink:href="#ArialMT-77"/>
      <use x="422.265625" xlink:href="#ArialMT-79"/>
      <use x="500.048828" xlink:href="#ArialMT-83"/>
      <use x="566.748047" xlink:href="#ArialMT-41"/>
     </g>
    </g>
   </g>
   <g id="line2d_25">
    <path clip-path="url(#pb52616a63c)" d="M 2.492308 207.8778 
L 5.067692 204.96501 
L 7.643077 207.076896 
L 10.218462 201.61734 
L 12.793846 205.39989 
L 15.369231 207.91404 
L 17.944615 211.3659 
L 20.52 208.288671 
L 23.095385 204.41235 
L 25.670769 211.629999 
L 28.246154 211.745514 
L 30.821538 208.810074 
L 33.396923 212.481639 
L 35.972308 208.323099 
L 38.547692 209.871 
L 41.123077 212.506101 
L 43.698462 213.29115 
L 46.273846 210.182211 
L 48.849231 210.860805 
L 51.424615 215.514021 
L 54 213.478239 
L 56.575385 213.79398 
L 59.150769 214.8087 
L 61.726154 212.600325 
L 64.301538 213.16431 
L 66.876923 209.629551 
L 69.452308 212.866689 
L 72.027692 210.321735 
L 74.603077 212.12241 
L 77.178462 212.730336 
L 79.753846 213.862836 
L 82.329231 211.43838 
L 84.904615 212.333055 
L 87.48 211.235436 
L 90.055385 211.943475 
L 92.630769 209.9616 
L 95.206154 212.618445 
L 100.356923 210.878019 
L 102.932308 212.447211 
L 105.507692 208.909734 
L 108.083077 211.584246 
L 110.658462 211.46556 
L 113.233846 209.998746 
L 115.809231 207.926271 
L 118.384615 212.16771 
L 120.96 210.087534 
L 123.535385 209.414829 
L 126.110769 210.16998 
L 128.686154 206.50974 
L 131.261538 210.125586 
L 133.836923 207.232275 
L 136.412308 206.8812 
L 138.987692 205.54485 
L 141.563077 207.754131 
L 144.138462 208.100676 
L 146.713846 208.635669 
L 149.289231 207.659454 
L 151.864615 208.263756 
L 154.44 207.079161 
L 157.015385 205.32288 
L 159.590769 206.08392 
L 162.166154 207.632274 
L 164.741538 206.49615 
L 167.316923 206.65923 
L 172.467692 206.41914 
L 175.043077 205.89366 
L 177.618462 205.90272 
L 180.193846 205.68075 
L 185.344615 205.98879 
L 187.92 205.63998 
L 190.495385 205.67169 
L 193.070769 206.6094 
L 195.646154 206.26512 
L 198.221538 206.67735 
L 200.796923 206.03409 
L 203.372308 207.273951 
L 205.947692 206.44632 
L 208.523077 206.25153 
L 211.098462 207.904074 
L 213.673846 206.58222 
L 216.249231 207.658095 
L 218.824615 207.817551 
L 221.4 206.82231 
L 223.975385 207.215061 
L 226.550769 205.37724 
L 229.126154 205.40442 
L 231.701538 203.33421 
L 234.276923 202.86309 
L 236.852308 200.92878 
L 239.427692 198.83139 
L 242.003077 197.23683 
L 244.578462 193.91181 
L 247.153846 191.92767 
L 249.729231 188.25837 
L 252.304615 186.82236 
L 254.88 180.97866 
L 257.455385 179.07606 
L 262.606154 170.57325 
L 267.756923 159.64236 
L 272.907692 150.68655 
L 275.483077 145.44987 
L 278.058462 139.74207 
L 280.633846 135.3072 
L 283.209231 128.58921 
L 285.784615 119.23476 
L 288.36 116.53035 
L 290.935385 107.87805 
L 296.086154 101.6946 
L 301.236923 92.91093 
L 303.812308 89.48625 
L 306.387692 84.94266 
L 308.963077 78.43758 
L 311.538462 73.78074 
L 314.113846 72.77508 
L 316.689231 68.64825 
L 319.264615 66.12957 
L 321.84 56.99256 
L 324.415385 58.5237 
L 326.990769 58.61883 
L 329.566154 55.25757 
L 332.141538 52.1364 
L 334.716923 52.78419 
L 337.292308 52.63017 
L 339.867692 50.36517 
L 342.443077 49.90764 
L 345.018462 50.65056 
L 347.593846 48.18171 
L 350.169231 48.61206 
L 352.744615 48.54864 
L 355.32 48.77514 
L 357.895385 48.34932 
L 360.470769 48.15453 
L 370.772308 48.15 
L 373.347692 48.48975 
L 375.923077 48.53958 
L 378.498462 48.15 
L 433 48.15 
L 433 48.15 
" style="fill:none;stroke:#4c72b0;stroke-linecap:round;stroke-width:1.5;"/>
   </g>
   <g id="line2d_26">
    <path clip-path="url(#pb52616a63c)" d="M 2.492308 205.16433 
L 5.067692 207.73737 
L 7.643077 210.851745 
L 10.218462 205.37724 
L 12.793846 207.434766 
L 15.369231 207.273045 
L 17.944615 206.55504 
L 20.52 209.500446 
L 23.095385 212.900664 
L 25.670769 208.705884 
L 28.246154 212.331696 
L 30.821538 211.95027 
L 33.396923 212.184471 
L 35.972308 213.765894 
L 38.547692 211.974279 
L 41.123077 209.83929 
L 43.698462 209.817999 
L 46.273846 213.008025 
L 48.849231 208.025931 
L 51.424615 211.131699 
L 54 212.446305 
L 56.575385 211.23453 
L 59.150769 214.814136 
L 61.726154 209.722869 
L 64.301538 212.215275 
L 66.876923 210.780624 
L 69.452308 212.44404 
L 72.027692 212.835885 
L 74.603077 212.594889 
L 77.178462 212.957289 
L 79.753846 214.107456 
L 82.329231 212.958195 
L 84.904615 212.079375 
L 87.48 211.581981 
L 90.055385 212.31267 
L 92.630769 211.709274 
L 95.206154 210.909276 
L 97.781538 210.555936 
L 100.356923 207.586974 
L 102.932308 207.960246 
L 105.507692 213.065556 
L 108.083077 211.019355 
L 110.658462 209.944386 
L 113.233846 212.256045 
L 115.809231 209.16885 
L 118.384615 210.671451 
L 120.96 209.53578 
L 123.535385 208.173156 
L 128.686154 206.723556 
L 131.261538 206.814156 
L 133.836923 207.146205 
L 136.412308 206.61393 
L 138.987692 208.704525 
L 141.563077 202.2606 
L 144.138462 203.61507 
L 146.713846 206.884371 
L 149.289231 204.18132 
L 151.864615 207.138051 
L 154.44 208.24926 
L 157.015385 205.94802 
L 159.590769 206.56863 
L 162.166154 207.490485 
L 164.741538 206.901585 
L 167.316923 205.99785 
L 169.892308 206.39196 
L 172.467692 206.48256 
L 175.043077 206.37837 
L 177.618462 207.016194 
L 180.193846 207.206454 
L 182.769231 207.870099 
L 185.344615 208.949145 
L 187.92 210.73623 
L 190.495385 212.130564 
L 193.070769 215.104056 
L 195.646154 215.50179 
L 198.221538 217.01481 
L 200.796923 216.182196 
L 203.372308 214.027275 
L 205.947692 211.408935 
L 208.523077 205.88913 
L 211.098462 199.52448 
L 213.673846 190.5732 
L 216.249231 182.61852 
L 218.824615 170.57325 
L 221.4 157.16445 
L 231.701538 100.60287 
L 234.276923 91.44774 
L 236.852308 79.69239 
L 239.427692 70.28811 
L 242.003077 58.67772 
L 244.578462 59.60637 
L 247.153846 53.32779 
L 249.729231 53.11488 
L 252.304615 48.57129 
L 254.88 48.15 
L 257.455385 49.83969 
L 260.030769 48.15 
L 433 48.15 
L 433 48.15 
" style="fill:none;stroke:#dd8452;stroke-linecap:round;stroke-width:1.5;"/>
   </g>
   <g id="line2d_27">
    <path clip-path="url(#pb52616a63c)" d="M 2.492308 204.07713 
L 5.067692 205.4316 
L 7.643077 200.72493 
L 10.218462 205.04202 
L 17.944615 210.461259 
L 20.52 209.4633 
L 23.095385 208.666926 
L 25.670769 207.3342 
L 28.246154 210.93555 
L 30.821538 210.431814 
L 33.396923 209.270775 
L 35.972308 214.675065 
L 38.547692 210.69093 
L 41.123077 213.264876 
L 43.698462 212.97405 
L 46.273846 213.59919 
L 48.849231 214.643355 
L 51.424615 211.346421 
L 54 211.067826 
L 56.575385 213.437016 
L 59.150769 211.396251 
L 61.726154 212.221164 
L 64.301538 211.07145 
L 66.876923 211.259445 
L 69.452308 211.299309 
L 72.027692 211.074621 
L 74.603077 211.091835 
L 77.178462 212.120145 
L 79.753846 210.602595 
L 82.329231 212.096589 
L 84.904615 211.880055 
L 87.48 212.71131 
L 90.055385 210.712221 
L 92.630769 211.643589 
L 95.206154 210.154125 
L 97.781538 212.233395 
L 100.356923 209.832495 
L 102.932308 212.130111 
L 105.507692 210.891156 
L 108.083077 211.894551 
L 110.658462 209.39988 
L 113.233846 207.091845 
L 115.809231 208.192635 
L 118.384615 210.330795 
L 120.96 208.672815 
L 123.535385 209.568849 
L 126.110769 209.332836 
L 128.686154 211.508595 
L 131.261538 208.105206 
L 133.836923 205.48143 
L 136.412308 207.90951 
L 138.987692 209.25492 
L 141.563077 208.215285 
L 144.138462 211.558425 
L 146.713846 212.971785 
L 149.289231 216.740745 
L 151.864615 221.917176 
L 154.44 225.663486 
L 157.015385 228.177636 
L 159.590769 228.977634 
L 162.166154 225.330531 
L 164.741538 219.545721 
L 167.316923 208.727175 
L 169.892308 195.22551 
L 172.467692 176.36712 
L 175.043077 153.66276 
L 177.618462 128.62545 
L 180.193846 107.12154 
L 182.769231 93.35034 
L 185.344615 75.9642 
L 187.92 63.35268 
L 190.495385 58.55088 
L 193.070769 52.0005 
L 195.646154 48.15 
L 198.221538 48.15 
L 200.796923 48.75249 
L 203.372308 48.80685 
L 205.947692 48.15 
L 433 48.15 
L 433 48.15 
" style="fill:none;stroke:#55a868;stroke-linecap:round;stroke-width:1.5;"/>
   </g>
   <g id="line2d_28">
    <path clip-path="url(#pb52616a63c)" d="M 2.492308 204.31269 
L 5.067692 202.70001 
L 7.643077 206.22888 
L 10.218462 199.88688 
L 12.793846 209.057865 
L 15.369231 206.43273 
L 17.944615 209.14167 
L 20.52 208.017324 
L 23.095385 207.458775 
L 25.670769 208.268286 
L 28.246154 210.001464 
L 30.821538 209.97519 
L 33.396923 209.39082 
L 35.972308 209.26398 
L 38.547692 208.989915 
L 41.123077 215.258529 
L 43.698462 212.895681 
L 46.273846 213.646755 
L 48.849231 212.636565 
L 54 213.334185 
L 56.575385 212.790585 
L 59.150769 211.384926 
L 61.726154 212.721729 
L 64.301538 211.466919 
L 66.876923 211.929885 
L 69.452308 213.38175 
L 74.603077 211.98651 
L 77.178462 210.860805 
L 79.753846 212.798286 
L 82.329231 211.56975 
L 84.904615 212.532375 
L 87.48 209.799426 
L 90.055385 211.671675 
L 92.630769 210.729435 
L 95.206154 211.326489 
L 97.781538 210.045405 
L 100.356923 209.130345 
L 102.932308 212.097495 
L 105.507692 211.753215 
L 108.083077 211.088211 
L 110.658462 211.355934 
L 113.233846 208.989915 
L 115.809231 211.526715 
L 118.384615 209.475531 
L 120.96 208.87893 
L 123.535385 210.741666 
L 126.110769 204.83817 
L 128.686154 209.01936 
L 131.261538 212.914254 
L 133.836923 215.97291 
L 136.412308 220.290906 
L 138.987692 226.229736 
L 141.563077 231.059169 
L 144.138462 231.953391 
L 146.713846 229.380804 
L 149.289231 224.535516 
L 151.864615 213.229995 
L 154.44 200.86083 
L 157.015385 181.76688 
L 159.590769 157.53138 
L 162.166154 130.48275 
L 164.741538 108.69345 
L 167.316923 84.13179 
L 169.892308 68.77509 
L 172.467692 58.70037 
L 175.043077 54.46935 
L 177.618462 49.85781 
L 182.769231 48.15 
L 185.344615 48.46257 
L 187.92 48.15 
L 433 48.15 
L 433 48.15 
" style="fill:none;stroke:#c44e52;stroke-linecap:round;stroke-width:1.5;"/>
   </g>
   <g id="line2d_29">
    <path clip-path="url(#pb52616a63c)" d="M 2.492308 204.55731 
L 5.067692 205.59921 
L 7.643077 205.70793 
L 10.218462 208.628421 
L 12.793846 206.714496 
L 15.369231 207.742806 
L 17.944615 207.401244 
L 20.52 210.377001 
L 23.095385 210.44178 
L 25.670769 209.523549 
L 28.246154 211.930791 
L 30.821538 212.9061 
L 33.396923 210.74076 
L 35.972308 209.45877 
L 38.547692 214.41459 
L 41.123077 211.83702 
L 43.698462 213.224559 
L 48.849231 207.880065 
L 51.424615 214.575405 
L 54 214.544601 
L 56.575385 214.128294 
L 59.150769 212.48934 
L 61.726154 213.95253 
L 64.301538 212.757516 
L 66.876923 213.352305 
L 69.452308 214.18809 
L 72.027692 211.342344 
L 74.603077 210.173604 
L 77.178462 213.573369 
L 79.753846 213.337809 
L 84.904615 212.373825 
L 87.48 212.794209 
L 90.055385 210.54597 
L 92.630769 211.863294 
L 95.206154 211.028415 
L 97.781538 212.696361 
L 100.356923 210.49614 
L 102.932308 210.235665 
L 105.507692 212.044494 
L 108.083077 211.883226 
L 110.658462 212.437245 
L 113.233846 211.93668 
L 115.809231 210.785154 
L 118.384615 211.027509 
L 120.96 209.545746 
L 123.535385 213.441999 
L 126.110769 218.51424 
L 128.686154 222.66825 
L 131.261538 228.512856 
L 133.836923 233.063694 
L 136.412308 233.456445 
L 138.987692 231.482271 
L 141.563077 224.129175 
L 144.138462 210.187194 
L 146.713846 191.73741 
L 149.289231 170.21085 
L 151.864615 142.15656 
L 154.44 117.33216 
L 157.015385 97.30503 
L 159.590769 75.08085 
L 162.166154 58.04352 
L 164.741538 54.19302 
L 167.316923 49.07412 
L 169.892308 48.15 
L 433 48.15 
L 433 48.15 
" style="fill:none;stroke:#8172b3;stroke-linecap:round;stroke-width:1.5;"/>
   </g>
   <g id="line2d_30">
    <path clip-path="url(#pb52616a63c)" d="M 2.492308 207.609171 
L 5.067692 204.86082 
L 7.643077 204.76569 
L 10.218462 207.254925 
L 12.793846 210.737589 
L 15.369231 208.825929 
L 17.944615 210.275529 
L 20.52 208.286406 
L 23.095385 208.719021 
L 25.670769 207.867381 
L 28.246154 210.606219 
L 30.821538 207.233181 
L 33.396923 212.268729 
L 35.972308 212.520144 
L 38.547692 213.719235 
L 41.123077 214.01142 
L 43.698462 209.657184 
L 46.273846 211.928526 
L 48.849231 215.079594 
L 51.424615 213.090924 
L 54 211.504971 
L 59.150769 213.484581 
L 61.726154 213.398964 
L 64.301538 213.13713 
L 66.876923 213.46329 
L 69.452308 210.03408 
L 72.027692 212.440416 
L 74.603077 212.84721 
L 77.178462 211.943475 
L 79.753846 213.11901 
L 84.904615 209.863299 
L 87.48 212.19489 
L 90.055385 212.82003 
L 92.630769 210.942345 
L 97.781538 212.071674 
L 100.356923 210.02955 
L 102.932308 211.57881 
L 105.507692 212.931921 
L 108.083077 210.010524 
L 110.658462 210.656955 
L 115.809231 212.635659 
L 118.384615 213.387639 
L 120.96 211.70112 
L 123.535385 215.985594 
L 126.110769 223.967001 
L 128.686154 230.868456 
L 131.261538 235.788036 
L 133.836923 235.742736 
L 136.412308 230.58669 
L 138.987692 217.330551 
L 141.563077 198.02958 
L 144.138462 172.28106 
L 146.713846 135.90969 
L 149.289231 104.14986 
L 154.44 61.46367 
L 157.015385 52.71171 
L 159.590769 48.80232 
L 162.166154 48.15 
L 433 48.15 
L 433 48.15 
" style="fill:none;stroke:#937860;stroke-linecap:round;stroke-width:1.5;"/>
   </g>
   <g id="line2d_31">
    <path clip-path="url(#pb52616a63c)" d="M 2.492308 205.89819 
L 5.067692 197.99334 
L 7.643077 209.04201 
L 10.218462 204.46218 
L 12.793846 211.286625 
L 15.369231 211.874619 
L 17.944615 206.62299 
L 20.52 208.69773 
L 23.095385 213.560685 
L 25.670769 214.714476 
L 28.246154 210.504294 
L 30.821538 209.828871 
L 33.396923 210.096141 
L 35.972308 213.15525 
L 38.547692 215.040636 
L 41.123077 214.53237 
L 43.698462 210.919695 
L 46.273846 211.667145 
L 48.849231 212.669181 
L 51.424615 211.140759 
L 54 212.106555 
L 56.575385 212.03634 
L 59.150769 212.382885 
L 61.726154 211.549365 
L 64.301538 211.60146 
L 66.876923 210.986286 
L 69.452308 213.473709 
L 72.027692 210.939174 
L 74.603077 211.64676 
L 77.178462 209.350956 
L 79.753846 213.772236 
L 82.329231 211.769976 
L 84.904615 212.179035 
L 87.48 211.649931 
L 90.055385 210.919695 
L 92.630769 212.346645 
L 95.206154 210.025926 
L 97.781538 211.8189 
L 100.356923 211.457859 
L 105.507692 215.188314 
L 108.083077 218.648781 
L 113.233846 230.601639 
L 115.809231 236.10876 
L 118.384615 236.722575 
L 120.96 234.345684 
L 123.535385 225.61275 
L 126.110769 213.343245 
L 128.686154 193.24137 
L 131.261538 164.91981 
L 133.836923 137.92101 
L 136.412308 108.34464 
L 138.987692 85.23711 
L 141.563077 68.95629 
L 144.138462 53.586 
L 146.713846 50.39235 
L 149.289231 48.66189 
L 151.864615 48.15 
L 433 48.15 
L 433 48.15 
" style="fill:none;stroke:#da8bc3;stroke-linecap:round;stroke-width:1.5;"/>
   </g>
   <g id="line2d_32">
    <path clip-path="url(#pb52616a63c)" d="M 2.492308 209.462394 
L 5.067692 205.15527 
L 7.643077 203.74644 
L 10.218462 204.71133 
L 12.793846 204.77475 
L 15.369231 210.148236 
L 17.944615 208.53465 
L 20.52 209.770434 
L 23.095385 210.140535 
L 25.670769 206.36931 
L 28.246154 214.76793 
L 30.821538 213.569745 
L 33.396923 211.579716 
L 35.972308 211.02162 
L 38.547692 216.51198 
L 41.123077 212.98764 
L 43.698462 215.18469 
L 46.273846 210.656955 
L 48.849231 213.592395 
L 51.424615 209.972019 
L 54 213.124446 
L 56.575385 211.310181 
L 59.150769 213.225465 
L 61.726154 212.020485 
L 64.301538 211.942569 
L 66.876923 212.905194 
L 69.452308 212.241549 
L 72.027692 211.10316 
L 74.603077 211.218675 
L 77.178462 213.06465 
L 79.753846 214.557285 
L 82.329231 214.644714 
L 84.904615 213.788091 
L 87.48 215.69205 
L 90.055385 210.299991 
L 92.630769 218.116506 
L 95.206154 224.916489 
L 100.356923 236.77467 
L 102.932308 239.41566 
L 105.507692 235.455081 
L 108.083077 226.447629 
L 110.658462 211.63317 
L 113.233846 191.0715 
L 115.809231 164.45775 
L 118.384615 129.32307 
L 120.96 103.93695 
L 123.535385 83.05365 
L 126.110769 58.86798 
L 128.686154 51.66528 
L 131.261538 50.1432 
L 133.836923 48.15 
L 136.412308 48.63924 
L 138.987692 48.15 
L 433 48.15 
L 433 48.15 
" style="fill:none;stroke:#8c8c8c;stroke-linecap:round;stroke-width:1.5;"/>
   </g>
   <g id="line2d_33">
    <path clip-path="url(#pb52616a63c)" d="M 2.492308 205.10544 
L 5.067692 207.006681 
L 7.643077 201.11451 
L 10.218462 205.48596 
L 12.793846 204.6162 
L 15.369231 208.062624 
L 17.944615 208.93329 
L 20.52 209.238159 
L 23.095385 209.658996 
L 25.670769 207.976554 
L 28.246154 213.220935 
L 30.821538 207.942126 
L 33.396923 212.478921 
L 35.972308 210.302256 
L 38.547692 212.42139 
L 41.123077 211.028415 
L 43.698462 211.75548 
L 46.273846 212.319465 
L 48.849231 212.514255 
L 51.424615 212.538264 
L 54 210.533739 
L 56.575385 212.579034 
L 59.150769 212.447664 
L 61.726154 213.605985 
L 64.301538 210.326265 
L 66.876923 213.52671 
L 69.452308 211.02615 
L 72.027692 210.846309 
L 74.603077 211.976091 
L 77.178462 212.80191 
L 79.753846 213.293415 
L 82.329231 212.464425 
L 84.904615 213.99783 
L 87.48 216.90609 
L 90.055385 221.556135 
L 95.206154 239.684289 
L 97.781538 241.344534 
L 100.356923 238.09743 
L 102.932308 226.433586 
L 105.507692 204.77022 
L 108.083077 171.74199 
L 110.658462 129.78966 
L 113.233846 95.19405 
L 115.809231 78.8634 
L 118.384615 54.36063 
L 120.96 48.70266 
L 123.535385 49.06506 
L 126.110769 48.97899 
L 128.686154 48.15 
L 433 48.15 
L 433 48.15 
" style="fill:none;stroke:#ccb974;stroke-linecap:round;stroke-width:1.5;"/>
   </g>
   <g id="line2d_34"/>
   <g id="line2d_35"/>
   <g id="line2d_36"/>
   <g id="line2d_37"/>
   <g id="line2d_38"/>
   <g id="line2d_39"/>
   <g id="line2d_40"/>
   <g id="line2d_41"/>
   <g id="line2d_42"/>
   <g id="line2d_43"/>
   <g id="patch_3">
    <path d="M 54 252 
L 54 34.56 
" style="fill:none;stroke:#ffffff;stroke-linecap:square;stroke-linejoin:miter;stroke-width:1.25;"/>
   </g>
   <g id="patch_4">
    <path d="M 388.8 252 
L 388.8 34.56 
" style="fill:none;stroke:#ffffff;stroke-linecap:square;stroke-linejoin:miter;stroke-width:1.25;"/>
   </g>
   <g id="patch_5">
    <path d="M 54 252 
L 388.8 252 
" style="fill:none;stroke:#ffffff;stroke-linecap:square;stroke-linejoin:miter;stroke-width:1.25;"/>
   </g>
   <g id="patch_6">
    <path d="M 54 34.56 
L 388.8 34.56 
" style="fill:none;stroke:#ffffff;stroke-linecap:square;stroke-linejoin:miter;stroke-width:1.25;"/>
   </g>
   <g id="legend_1">
    <g id="patch_7">
     <path d="M 277.423281 246.5 
L 381.1 246.5 
Q 383.3 246.5 383.3 244.3 
L 383.3 87.697812 
Q 383.3 85.497812 381.1 85.497812 
L 277.423281 85.497812 
Q 275.223281 85.497812 275.223281 87.697812 
L 275.223281 244.3 
Q 275.223281 246.5 277.423281 246.5 
z
" style="fill:#eaeaf2;opacity:0.8;stroke:#cccccc;stroke-linejoin:miter;"/>
    </g>
    <g id="line2d_44">
     <path d="M 279.623281 93.921406 
L 301.623281 93.921406 
" style="fill:none;"/>
    </g>
    <g id="line2d_45"/>
    <g id="text_27">
     <!-- FEC -->
     <defs>
      <path d="M 8.203125 0 
L 8.203125 71.578125 
L 56.5 71.578125 
L 56.5 63.140625 
L 17.671875 63.140625 
L 17.671875 40.96875 
L 51.265625 40.96875 
L 51.265625 32.515625 
L 17.671875 32.515625 
L 17.671875 0 
z
" id="ArialMT-70"/>
      <path d="M 58.796875 25.09375 
L 68.265625 22.703125 
Q 65.28125 11.03125 57.546875 4.90625 
Q 49.8125 -1.21875 38.625 -1.21875 
Q 27.046875 -1.21875 19.796875 3.484375 
Q 12.546875 8.203125 8.765625 17.140625 
Q 4.984375 26.078125 4.984375 36.328125 
Q 4.984375 47.515625 9.25 55.828125 
Q 13.53125 64.15625 21.40625 68.46875 
Q 29.296875 72.796875 38.765625 72.796875 
Q 49.515625 72.796875 56.828125 67.328125 
Q 64.15625 61.859375 67.046875 51.953125 
L 57.71875 49.75 
Q 55.21875 57.5625 50.484375 61.125 
Q 45.75 64.703125 38.578125 64.703125 
Q 30.328125 64.703125 24.78125 60.734375 
Q 19.234375 56.78125 16.984375 50.109375 
Q 14.75 43.453125 14.75 36.375 
Q 14.75 27.25 17.40625 20.4375 
Q 20.0625 13.625 25.671875 10.25 
Q 31.296875 6.890625 37.84375 6.890625 
Q 45.796875 6.890625 51.3125 11.46875 
Q 56.84375 16.0625 58.796875 25.09375 
z
" id="ArialMT-67"/>
     </defs>
     <g style="fill:#262626;" transform="translate(310.423281 97.771406)scale(0.11 -0.11)">
      <use xlink:href="#ArialMT-70"/>
      <use x="61.083984" xlink:href="#ArialMT-69"/>
      <use x="127.783203" xlink:href="#ArialMT-67"/>
     </g>
    </g>
    <g id="line2d_46">
     <path d="M 279.623281 109.48125 
L 301.623281 109.48125 
" style="fill:none;stroke:#4c72b0;stroke-linecap:round;stroke-width:1.5;"/>
    </g>
    <g id="line2d_47"/>
    <g id="text_28">
     <!-- No Code -->
     <defs>
      <path d="M 3.328125 25.921875 
Q 3.328125 40.328125 11.328125 47.265625 
Q 18.015625 53.03125 27.640625 53.03125 
Q 38.328125 53.03125 45.109375 46.015625 
Q 51.90625 39.015625 51.90625 26.65625 
Q 51.90625 16.65625 48.90625 10.90625 
Q 45.90625 5.171875 40.15625 2 
Q 34.421875 -1.171875 27.640625 -1.171875 
Q 16.75 -1.171875 10.03125 5.8125 
Q 3.328125 12.796875 3.328125 25.921875 
z
M 12.359375 25.921875 
Q 12.359375 15.96875 16.703125 11.015625 
Q 21.046875 6.0625 27.640625 6.0625 
Q 34.1875 6.0625 38.53125 11.03125 
Q 42.875 16.015625 42.875 26.21875 
Q 42.875 35.84375 38.5 40.796875 
Q 34.125 45.75 27.640625 45.75 
Q 21.046875 45.75 16.703125 40.8125 
Q 12.359375 35.890625 12.359375 25.921875 
z
" id="ArialMT-111"/>
      <path d="M 42.09375 16.703125 
L 51.171875 15.578125 
Q 49.03125 7.625 43.21875 3.21875 
Q 37.40625 -1.171875 28.375 -1.171875 
Q 17 -1.171875 10.328125 5.828125 
Q 3.65625 12.84375 3.65625 25.484375 
Q 3.65625 38.578125 10.390625 45.796875 
Q 17.140625 53.03125 27.875 53.03125 
Q 38.28125 53.03125 44.875 45.953125 
Q 51.46875 38.875 51.46875 26.03125 
Q 51.46875 25.25 51.421875 23.6875 
L 12.75 23.6875 
Q 13.234375 15.140625 17.578125 10.59375 
Q 21.921875 6.0625 28.421875 6.0625 
Q 33.25 6.0625 36.671875 8.59375 
Q 40.09375 11.140625 42.09375 16.703125 
z
M 13.234375 30.90625 
L 42.1875 30.90625 
Q 41.609375 37.453125 38.875 40.71875 
Q 34.671875 45.796875 27.984375 45.796875 
Q 21.921875 45.796875 17.796875 41.75 
Q 13.671875 37.703125 13.234375 30.90625 
z
" id="ArialMT-101"/>
     </defs>
     <g style="fill:#262626;" transform="translate(310.423281 113.33125)scale(0.11 -0.11)">
      <use xlink:href="#ArialMT-78"/>
      <use x="72.216797" xlink:href="#ArialMT-111"/>
      <use x="127.832031" xlink:href="#ArialMT-32"/>
      <use x="155.615234" xlink:href="#ArialMT-67"/>
      <use x="227.832031" xlink:href="#ArialMT-111"/>
      <use x="283.447266" xlink:href="#ArialMT-100"/>
      <use x="339.0625" xlink:href="#ArialMT-101"/>
     </g>
    </g>
    <g id="line2d_48">
     <path d="M 279.623281 125.175156 
L 301.623281 125.175156 
" style="fill:none;stroke:#dd8452;stroke-linecap:round;stroke-width:1.5;"/>
    </g>
    <g id="line2d_49"/>
    <g id="text_29">
     <!-- RS (255, 247) -->
     <defs>
      <path d="M 8.890625 0 
L 8.890625 10.015625 
L 18.890625 10.015625 
L 18.890625 0 
Q 18.890625 -5.515625 16.9375 -8.90625 
Q 14.984375 -12.3125 10.75 -14.15625 
L 8.296875 -10.40625 
Q 11.078125 -9.1875 12.390625 -6.8125 
Q 13.71875 -4.4375 13.875 0 
z
" id="ArialMT-44"/>
     </defs>
     <g style="fill:#262626;" transform="translate(310.423281 129.025156)scale(0.11 -0.11)">
      <use xlink:href="#ArialMT-82"/>
      <use x="72.216797" xlink:href="#ArialMT-83"/>
      <use x="138.916016" xlink:href="#ArialMT-32"/>
      <use x="166.699219" xlink:href="#ArialMT-40"/>
      <use x="200" xlink:href="#ArialMT-50"/>
      <use x="255.615234" xlink:href="#ArialMT-53"/>
      <use x="311.230469" xlink:href="#ArialMT-53"/>
      <use x="366.845703" xlink:href="#ArialMT-44"/>
      <use x="394.628906" xlink:href="#ArialMT-32"/>
      <use x="422.412109" xlink:href="#ArialMT-50"/>
      <use x="478.027344" xlink:href="#ArialMT-52"/>
      <use x="533.642578" xlink:href="#ArialMT-55"/>
      <use x="589.257812" xlink:href="#ArialMT-41"/>
     </g>
    </g>
    <g id="line2d_50">
     <path d="M 279.623281 140.997969 
L 301.623281 140.997969 
" style="fill:none;stroke:#55a868;stroke-linecap:round;stroke-width:1.5;"/>
    </g>
    <g id="line2d_51"/>
    <g id="text_30">
     <!-- RS (255, 225) -->
     <g style="fill:#262626;" transform="translate(310.423281 144.847969)scale(0.11 -0.11)">
      <use xlink:href="#ArialMT-82"/>
      <use x="72.216797" xlink:href="#ArialMT-83"/>
      <use x="138.916016" xlink:href="#ArialMT-32"/>
      <use x="166.699219" xlink:href="#ArialMT-40"/>
      <use x="200" xlink:href="#ArialMT-50"/>
      <use x="255.615234" xlink:href="#ArialMT-53"/>
      <use x="311.230469" xlink:href="#ArialMT-53"/>
      <use x="366.845703" xlink:href="#ArialMT-44"/>
      <use x="394.628906" xlink:href="#ArialMT-32"/>
      <use x="422.412109" xlink:href="#ArialMT-50"/>
      <use x="478.027344" xlink:href="#ArialMT-50"/>
      <use x="533.642578" xlink:href="#ArialMT-53"/>
      <use x="589.257812" xlink:href="#ArialMT-41"/>
     </g>
    </g>
    <g id="line2d_52">
     <path d="M 279.623281 156.820781 
L 301.623281 156.820781 
" style="fill:none;stroke:#c44e52;stroke-linecap:round;stroke-width:1.5;"/>
    </g>
    <g id="line2d_53"/>
    <g id="text_31">
     <!-- RS (240, 200) -->
     <g style="fill:#262626;" transform="translate(310.423281 160.670781)scale(0.11 -0.11)">
      <use xlink:href="#ArialMT-82"/>
      <use x="72.216797" xlink:href="#ArialMT-83"/>
      <use x="138.916016" xlink:href="#ArialMT-32"/>
      <use x="166.699219" xlink:href="#ArialMT-40"/>
      <use x="200" xlink:href="#ArialMT-50"/>
      <use x="255.615234" xlink:href="#ArialMT-52"/>
      <use x="311.230469" xlink:href="#ArialMT-48"/>
      <use x="366.845703" xlink:href="#ArialMT-44"/>
      <use x="394.628906" xlink:href="#ArialMT-32"/>
      <use x="422.412109" xlink:href="#ArialMT-50"/>
      <use x="478.027344" xlink:href="#ArialMT-48"/>
      <use x="533.642578" xlink:href="#ArialMT-48"/>
      <use x="589.257812" xlink:href="#ArialMT-41"/>
     </g>
    </g>
    <g id="line2d_54">
     <path d="M 279.623281 172.643594 
L 301.623281 172.643594 
" style="fill:none;stroke:#8172b3;stroke-linecap:round;stroke-width:1.5;"/>
    </g>
    <g id="line2d_55"/>
    <g id="text_32">
     <!-- RS (255, 205) -->
     <g style="fill:#262626;" transform="translate(310.423281 176.493594)scale(0.11 -0.11)">
      <use xlink:href="#ArialMT-82"/>
      <use x="72.216797" xlink:href="#ArialMT-83"/>
      <use x="138.916016" xlink:href="#ArialMT-32"/>
      <use x="166.699219" xlink:href="#ArialMT-40"/>
      <use x="200" xlink:href="#ArialMT-50"/>
      <use x="255.615234" xlink:href="#ArialMT-53"/>
      <use x="311.230469" xlink:href="#ArialMT-53"/>
      <use x="366.845703" xlink:href="#ArialMT-44"/>
      <use x="394.628906" xlink:href="#ArialMT-32"/>
      <use x="422.412109" xlink:href="#ArialMT-50"/>
      <use x="478.027344" xlink:href="#ArialMT-48"/>
      <use x="533.642578" xlink:href="#ArialMT-53"/>
      <use x="589.257812" xlink:href="#ArialMT-41"/>
     </g>
    </g>
    <g id="line2d_56">
     <path d="M 279.623281 188.466406 
L 301.623281 188.466406 
" style="fill:none;stroke:#937860;stroke-linecap:round;stroke-width:1.5;"/>
    </g>
    <g id="line2d_57"/>
    <g id="text_33">
     <!-- RS (360, 280) -->
     <g style="fill:#262626;" transform="translate(310.423281 192.316406)scale(0.11 -0.11)">
      <use xlink:href="#ArialMT-82"/>
      <use x="72.216797" xlink:href="#ArialMT-83"/>
      <use x="138.916016" xlink:href="#ArialMT-32"/>
      <use x="166.699219" xlink:href="#ArialMT-40"/>
      <use x="200" xlink:href="#ArialMT-51"/>
      <use x="255.615234" xlink:href="#ArialMT-54"/>
      <use x="311.230469" xlink:href="#ArialMT-48"/>
      <use x="366.845703" xlink:href="#ArialMT-44"/>
      <use x="394.628906" xlink:href="#ArialMT-32"/>
      <use x="422.412109" xlink:href="#ArialMT-50"/>
      <use x="478.027344" xlink:href="#ArialMT-56"/>
      <use x="533.642578" xlink:href="#ArialMT-48"/>
      <use x="589.257812" xlink:href="#ArialMT-41"/>
     </g>
    </g>
    <g id="line2d_58">
     <path d="M 279.623281 204.289219 
L 301.623281 204.289219 
" style="fill:none;stroke:#da8bc3;stroke-linecap:round;stroke-width:1.5;"/>
    </g>
    <g id="line2d_59"/>
    <g id="text_34">
     <!-- RS (255, 185) -->
     <g style="fill:#262626;" transform="translate(310.423281 208.139219)scale(0.11 -0.11)">
      <use xlink:href="#ArialMT-82"/>
      <use x="72.216797" xlink:href="#ArialMT-83"/>
      <use x="138.916016" xlink:href="#ArialMT-32"/>
      <use x="166.699219" xlink:href="#ArialMT-40"/>
      <use x="200" xlink:href="#ArialMT-50"/>
      <use x="255.615234" xlink:href="#ArialMT-53"/>
      <use x="311.230469" xlink:href="#ArialMT-53"/>
      <use x="366.845703" xlink:href="#ArialMT-44"/>
      <use x="394.628906" xlink:href="#ArialMT-32"/>
      <use x="422.412109" xlink:href="#ArialMT-49"/>
      <use x="478.027344" xlink:href="#ArialMT-56"/>
      <use x="533.642578" xlink:href="#ArialMT-53"/>
      <use x="589.257812" xlink:href="#ArialMT-41"/>
     </g>
    </g>
    <g id="line2d_60">
     <path d="M 279.623281 220.112031 
L 301.623281 220.112031 
" style="fill:none;stroke:#8c8c8c;stroke-linecap:round;stroke-width:1.5;"/>
    </g>
    <g id="line2d_61"/>
    <g id="text_35">
     <!-- RS (255, 165) -->
     <g style="fill:#262626;" transform="translate(310.423281 223.962031)scale(0.11 -0.11)">
      <use xlink:href="#ArialMT-82"/>
      <use x="72.216797" xlink:href="#ArialMT-83"/>
      <use x="138.916016" xlink:href="#ArialMT-32"/>
      <use x="166.699219" xlink:href="#ArialMT-40"/>
      <use x="200" xlink:href="#ArialMT-50"/>
      <use x="255.615234" xlink:href="#ArialMT-53"/>
      <use x="311.230469" xlink:href="#ArialMT-53"/>
      <use x="366.845703" xlink:href="#ArialMT-44"/>
      <use x="394.628906" xlink:href="#ArialMT-32"/>
      <use x="422.412109" xlink:href="#ArialMT-49"/>
      <use x="478.027344" xlink:href="#ArialMT-54"/>
      <use x="533.642578" xlink:href="#ArialMT-53"/>
      <use x="589.257812" xlink:href="#ArialMT-41"/>
     </g>
    </g>
    <g id="line2d_62">
     <path d="M 279.623281 235.934844 
L 301.623281 235.934844 
" style="fill:none;stroke:#ccb974;stroke-linecap:round;stroke-width:1.5;"/>
    </g>
    <g id="line2d_63"/>
    <g id="text_36">
     <!-- RS (400, 240) -->
     <g style="fill:#262626;" transform="translate(310.423281 239.784844)scale(0.11 -0.11)">
      <use xlink:href="#ArialMT-82"/>
      <use x="72.216797" xlink:href="#ArialMT-83"/>
      <use x="138.916016" xlink:href="#ArialMT-32"/>
      <use x="166.699219" xlink:href="#ArialMT-40"/>
      <use x="200" xlink:href="#ArialMT-52"/>
      <use x="255.615234" xlink:href="#ArialMT-48"/>
      <use x="311.230469" xlink:href="#ArialMT-48"/>
      <use x="366.845703" xlink:href="#ArialMT-44"/>
      <use x="394.628906" xlink:href="#ArialMT-32"/>
      <use x="422.412109" xlink:href="#ArialMT-50"/>
      <use x="478.027344" xlink:href="#ArialMT-52"/>
      <use x="533.642578" xlink:href="#ArialMT-48"/>
      <use x="589.257812" xlink:href="#ArialMT-41"/>
     </g>
    </g>
   </g>
  </g>
 </g>
 <defs>
  <clipPath id="pb52616a63c">
   <rect height="217.44" width="334.8" x="54" y="34.56"/>
  </clipPath>
 </defs>
</svg>
