<?xml version="1.0" encoding="utf-8" standalone="no"?>
<!DOCTYPE svg PUBLIC "-//W3C//DTD SVG 1.1//EN"
  "http://www.w3.org/Graphics/SVG/1.1/DTD/svg11.dtd">
<!-- Created with matplotlib (https://matplotlib.org/) -->
<svg height="288pt" version="1.1" viewBox="0 0 432 288" width="432pt" xmlns="http://www.w3.org/2000/svg" xmlns:xlink="http://www.w3.org/1999/xlink">
 <defs>
  <style type="text/css">
*{stroke-linecap:butt;stroke-linejoin:round;white-space:pre;}
  </style>
 </defs>
 <g id="figure_1">
  <g id="patch_1">
   <path d="M 0 288 
L 432 288 
L 432 0 
L 0 0 
z
" style="fill:#ffffff;"/>
  </g>
  <g id="axes_1">
   <g id="patch_2">
    <path d="M 54 252 
L 388.8 252 
L 388.8 34.56 
L 54 34.56 
z
" style="fill:#eaeaf2;"/>
   </g>
   <g id="matplotlib.axis_1">
    <g id="xtick_1">
     <g id="line2d_1">
      <path clip-path="url(#pa2e9dc0fc4)" d="M 54 252 
L 54 34.56 
" style="fill:none;stroke:#ffffff;stroke-linecap:round;"/>
     </g>
     <g id="text_1">
      <!-- 2 -->
      <defs>
       <path d="M 50.34375 8.453125 
L 50.34375 0 
L 3.03125 0 
Q 2.9375 3.171875 4.046875 6.109375 
Q 5.859375 10.9375 9.828125 15.625 
Q 13.8125 20.3125 21.34375 26.46875 
Q 33.015625 36.03125 37.109375 41.625 
Q 41.21875 47.21875 41.21875 52.203125 
Q 41.21875 57.421875 37.46875 61 
Q 33.734375 64.59375 27.734375 64.59375 
Q 21.390625 64.59375 17.578125 60.78125 
Q 13.765625 56.984375 13.71875 50.25 
L 4.6875 51.171875 
Q 5.609375 61.28125 11.65625 66.578125 
Q 17.71875 71.875 27.9375 71.875 
Q 38.234375 71.875 44.234375 66.15625 
Q 50.25 60.453125 50.25 52 
Q 50.25 47.703125 48.484375 43.546875 
Q 46.734375 39.40625 42.65625 34.8125 
Q 38.578125 30.21875 29.109375 22.21875 
Q 21.1875 15.578125 18.9375 13.203125 
Q 16.703125 10.84375 15.234375 8.453125 
z
" id="ArialMT-50"/>
      </defs>
      <g style="fill:#262626;" transform="translate(50.941484 269.373594)scale(0.11 -0.11)">
       <use xlink:href="#ArialMT-50"/>
      </g>
     </g>
    </g>
    <g id="xtick_2">
     <g id="line2d_2">
      <path clip-path="url(#pa2e9dc0fc4)" d="M 84.436364 252 
L 84.436364 34.56 
" style="fill:none;stroke:#ffffff;stroke-linecap:round;"/>
     </g>
     <g id="text_2">
      <!-- 3 -->
      <defs>
       <path d="M 4.203125 18.890625 
L 12.984375 20.0625 
Q 14.5 12.59375 18.140625 9.296875 
Q 21.78125 6 27 6 
Q 33.203125 6 37.46875 10.296875 
Q 41.75 14.59375 41.75 20.953125 
Q 41.75 27 37.796875 30.921875 
Q 33.84375 34.859375 27.734375 34.859375 
Q 25.25 34.859375 21.53125 33.890625 
L 22.515625 41.609375 
Q 23.390625 41.5 23.921875 41.5 
Q 29.546875 41.5 34.03125 44.421875 
Q 38.53125 47.359375 38.53125 53.46875 
Q 38.53125 58.296875 35.25 61.46875 
Q 31.984375 64.65625 26.8125 64.65625 
Q 21.6875 64.65625 18.265625 61.421875 
Q 14.84375 58.203125 13.875 51.765625 
L 5.078125 53.328125 
Q 6.6875 62.15625 12.390625 67.015625 
Q 18.109375 71.875 26.609375 71.875 
Q 32.46875 71.875 37.390625 69.359375 
Q 42.328125 66.84375 44.9375 62.5 
Q 47.5625 58.15625 47.5625 53.265625 
Q 47.5625 48.640625 45.0625 44.828125 
Q 42.578125 41.015625 37.703125 38.765625 
Q 44.046875 37.3125 47.5625 32.6875 
Q 51.078125 28.078125 51.078125 21.140625 
Q 51.078125 11.765625 44.234375 5.25 
Q 37.40625 -1.265625 26.953125 -1.265625 
Q 17.53125 -1.265625 11.296875 4.34375 
Q 5.078125 9.96875 4.203125 18.890625 
z
" id="ArialMT-51"/>
      </defs>
      <g style="fill:#262626;" transform="translate(81.377848 269.373594)scale(0.11 -0.11)">
       <use xlink:href="#ArialMT-51"/>
      </g>
     </g>
    </g>
    <g id="xtick_3">
     <g id="line2d_3">
      <path clip-path="url(#pa2e9dc0fc4)" d="M 114.872727 252 
L 114.872727 34.56 
" style="fill:none;stroke:#ffffff;stroke-linecap:round;"/>
     </g>
     <g id="text_3">
      <!-- 4 -->
      <defs>
       <path d="M 32.328125 0 
L 32.328125 17.140625 
L 1.265625 17.140625 
L 1.265625 25.203125 
L 33.9375 71.578125 
L 41.109375 71.578125 
L 41.109375 25.203125 
L 50.78125 25.203125 
L 50.78125 17.140625 
L 41.109375 17.140625 
L 41.109375 0 
z
M 32.328125 25.203125 
L 32.328125 57.46875 
L 9.90625 25.203125 
z
" id="ArialMT-52"/>
      </defs>
      <g style="fill:#262626;" transform="translate(111.814212 269.373594)scale(0.11 -0.11)">
       <use xlink:href="#ArialMT-52"/>
      </g>
     </g>
    </g>
    <g id="xtick_4">
     <g id="line2d_4">
      <path clip-path="url(#pa2e9dc0fc4)" d="M 145.309091 252 
L 145.309091 34.56 
" style="fill:none;stroke:#ffffff;stroke-linecap:round;"/>
     </g>
     <g id="text_4">
      <!-- 5 -->
      <defs>
       <path d="M 4.15625 18.75 
L 13.375 19.53125 
Q 14.40625 12.796875 18.140625 9.390625 
Q 21.875 6 27.15625 6 
Q 33.5 6 37.890625 10.78125 
Q 42.28125 15.578125 42.28125 23.484375 
Q 42.28125 31 38.0625 35.34375 
Q 33.84375 39.703125 27 39.703125 
Q 22.75 39.703125 19.328125 37.765625 
Q 15.921875 35.84375 13.96875 32.765625 
L 5.71875 33.84375 
L 12.640625 70.609375 
L 48.25 70.609375 
L 48.25 62.203125 
L 19.671875 62.203125 
L 15.828125 42.96875 
Q 22.265625 47.46875 29.34375 47.46875 
Q 38.71875 47.46875 45.15625 40.96875 
Q 51.609375 34.46875 51.609375 24.265625 
Q 51.609375 14.546875 45.953125 7.46875 
Q 39.0625 -1.21875 27.15625 -1.21875 
Q 17.390625 -1.21875 11.203125 4.25 
Q 5.03125 9.71875 4.15625 18.75 
z
" id="ArialMT-53"/>
      </defs>
      <g style="fill:#262626;" transform="translate(142.250575 269.373594)scale(0.11 -0.11)">
       <use xlink:href="#ArialMT-53"/>
      </g>
     </g>
    </g>
    <g id="xtick_5">
     <g id="line2d_5">
      <path clip-path="url(#pa2e9dc0fc4)" d="M 175.745455 252 
L 175.745455 34.56 
" style="fill:none;stroke:#ffffff;stroke-linecap:round;"/>
     </g>
     <g id="text_5">
      <!-- 6 -->
      <defs>
       <path d="M 49.75 54.046875 
L 41.015625 53.375 
Q 39.84375 58.546875 37.703125 60.890625 
Q 34.125 64.65625 28.90625 64.65625 
Q 24.703125 64.65625 21.53125 62.3125 
Q 17.390625 59.28125 14.984375 53.46875 
Q 12.59375 47.65625 12.5 36.921875 
Q 15.671875 41.75 20.265625 44.09375 
Q 24.859375 46.4375 29.890625 46.4375 
Q 38.671875 46.4375 44.84375 39.96875 
Q 51.03125 33.5 51.03125 23.25 
Q 51.03125 16.5 48.125 10.71875 
Q 45.21875 4.9375 40.140625 1.859375 
Q 35.0625 -1.21875 28.609375 -1.21875 
Q 17.625 -1.21875 10.6875 6.859375 
Q 3.765625 14.9375 3.765625 33.5 
Q 3.765625 54.25 11.421875 63.671875 
Q 18.109375 71.875 29.4375 71.875 
Q 37.890625 71.875 43.28125 67.140625 
Q 48.6875 62.40625 49.75 54.046875 
z
M 13.875 23.1875 
Q 13.875 18.65625 15.796875 14.5 
Q 17.71875 10.359375 21.1875 8.171875 
Q 24.65625 6 28.46875 6 
Q 34.03125 6 38.03125 10.484375 
Q 42.046875 14.984375 42.046875 22.703125 
Q 42.046875 30.125 38.078125 34.390625 
Q 34.125 38.671875 28.125 38.671875 
Q 22.171875 38.671875 18.015625 34.390625 
Q 13.875 30.125 13.875 23.1875 
z
" id="ArialMT-54"/>
      </defs>
      <g style="fill:#262626;" transform="translate(172.686939 269.373594)scale(0.11 -0.11)">
       <use xlink:href="#ArialMT-54"/>
      </g>
     </g>
    </g>
    <g id="xtick_6">
     <g id="line2d_6">
      <path clip-path="url(#pa2e9dc0fc4)" d="M 206.181818 252 
L 206.181818 34.56 
" style="fill:none;stroke:#ffffff;stroke-linecap:round;"/>
     </g>
     <g id="text_6">
      <!-- 7 -->
      <defs>
       <path d="M 4.734375 62.203125 
L 4.734375 70.65625 
L 51.078125 70.65625 
L 51.078125 63.8125 
Q 44.234375 56.546875 37.515625 44.484375 
Q 30.8125 32.421875 27.15625 19.671875 
Q 24.515625 10.6875 23.78125 0 
L 14.75 0 
Q 14.890625 8.453125 18.0625 20.40625 
Q 21.234375 32.375 27.171875 43.484375 
Q 33.109375 54.59375 39.796875 62.203125 
z
" id="ArialMT-55"/>
      </defs>
      <g style="fill:#262626;" transform="translate(203.123303 269.373594)scale(0.11 -0.11)">
       <use xlink:href="#ArialMT-55"/>
      </g>
     </g>
    </g>
    <g id="xtick_7">
     <g id="line2d_7">
      <path clip-path="url(#pa2e9dc0fc4)" d="M 236.618182 252 
L 236.618182 34.56 
" style="fill:none;stroke:#ffffff;stroke-linecap:round;"/>
     </g>
     <g id="text_7">
      <!-- 8 -->
      <defs>
       <path d="M 17.671875 38.8125 
Q 12.203125 40.828125 9.5625 44.53125 
Q 6.9375 48.25 6.9375 53.421875 
Q 6.9375 61.234375 12.546875 66.546875 
Q 18.171875 71.875 27.484375 71.875 
Q 36.859375 71.875 42.578125 66.421875 
Q 48.296875 60.984375 48.296875 53.171875 
Q 48.296875 48.1875 45.671875 44.5 
Q 43.0625 40.828125 37.75 38.8125 
Q 44.34375 36.671875 47.78125 31.875 
Q 51.21875 27.09375 51.21875 20.453125 
Q 51.21875 11.28125 44.71875 5.03125 
Q 38.234375 -1.21875 27.640625 -1.21875 
Q 17.046875 -1.21875 10.546875 5.046875 
Q 4.046875 11.328125 4.046875 20.703125 
Q 4.046875 27.6875 7.59375 32.390625 
Q 11.140625 37.109375 17.671875 38.8125 
z
M 15.921875 53.71875 
Q 15.921875 48.640625 19.1875 45.40625 
Q 22.46875 42.1875 27.6875 42.1875 
Q 32.765625 42.1875 36.015625 45.375 
Q 39.265625 48.578125 39.265625 53.21875 
Q 39.265625 58.0625 35.90625 61.359375 
Q 32.5625 64.65625 27.59375 64.65625 
Q 22.5625 64.65625 19.234375 61.421875 
Q 15.921875 58.203125 15.921875 53.71875 
z
M 13.09375 20.65625 
Q 13.09375 16.890625 14.875 13.375 
Q 16.65625 9.859375 20.171875 7.921875 
Q 23.6875 6 27.734375 6 
Q 34.03125 6 38.125 10.046875 
Q 42.234375 14.109375 42.234375 20.359375 
Q 42.234375 26.703125 38.015625 30.859375 
Q 33.796875 35.015625 27.4375 35.015625 
Q 21.234375 35.015625 17.15625 30.90625 
Q 13.09375 26.8125 13.09375 20.65625 
z
" id="ArialMT-56"/>
      </defs>
      <g style="fill:#262626;" transform="translate(233.559666 269.373594)scale(0.11 -0.11)">
       <use xlink:href="#ArialMT-56"/>
      </g>
     </g>
    </g>
    <g id="xtick_8">
     <g id="line2d_8">
      <path clip-path="url(#pa2e9dc0fc4)" d="M 267.054545 252 
L 267.054545 34.56 
" style="fill:none;stroke:#ffffff;stroke-linecap:round;"/>
     </g>
     <g id="text_8">
      <!-- 9 -->
      <defs>
       <path d="M 5.46875 16.546875 
L 13.921875 17.328125 
Q 14.984375 11.375 18.015625 8.6875 
Q 21.046875 6 25.78125 6 
Q 29.828125 6 32.875 7.859375 
Q 35.9375 9.71875 37.890625 12.8125 
Q 39.84375 15.921875 41.15625 21.1875 
Q 42.484375 26.46875 42.484375 31.9375 
Q 42.484375 32.515625 42.4375 33.6875 
Q 39.796875 29.5 35.234375 26.875 
Q 30.671875 24.265625 25.34375 24.265625 
Q 16.453125 24.265625 10.296875 30.703125 
Q 4.15625 37.15625 4.15625 47.703125 
Q 4.15625 58.59375 10.578125 65.234375 
Q 17 71.875 26.65625 71.875 
Q 33.640625 71.875 39.421875 68.109375 
Q 45.21875 64.359375 48.21875 57.390625 
Q 51.21875 50.4375 51.21875 37.25 
Q 51.21875 23.53125 48.234375 15.40625 
Q 45.265625 7.28125 39.375 3.03125 
Q 33.5 -1.21875 25.59375 -1.21875 
Q 17.1875 -1.21875 11.859375 3.4375 
Q 6.546875 8.109375 5.46875 16.546875 
z
M 41.453125 48.140625 
Q 41.453125 55.71875 37.421875 60.15625 
Q 33.40625 64.59375 27.734375 64.59375 
Q 21.875 64.59375 17.53125 59.8125 
Q 13.1875 55.03125 13.1875 47.40625 
Q 13.1875 40.578125 17.3125 36.296875 
Q 21.4375 32.03125 27.484375 32.03125 
Q 33.59375 32.03125 37.515625 36.296875 
Q 41.453125 40.578125 41.453125 48.140625 
z
" id="ArialMT-57"/>
      </defs>
      <g style="fill:#262626;" transform="translate(263.99603 269.373594)scale(0.11 -0.11)">
       <use xlink:href="#ArialMT-57"/>
      </g>
     </g>
    </g>
    <g id="xtick_9">
     <g id="line2d_9">
      <path clip-path="url(#pa2e9dc0fc4)" d="M 297.490909 252 
L 297.490909 34.56 
" style="fill:none;stroke:#ffffff;stroke-linecap:round;"/>
     </g>
     <g id="text_9">
      <!-- 10 -->
      <defs>
       <path d="M 37.25 0 
L 28.46875 0 
L 28.46875 56 
Q 25.296875 52.984375 20.140625 49.953125 
Q 14.984375 46.921875 10.890625 45.40625 
L 10.890625 53.90625 
Q 18.265625 57.375 23.78125 62.296875 
Q 29.296875 67.234375 31.59375 71.875 
L 37.25 71.875 
z
" id="ArialMT-49"/>
       <path d="M 4.15625 35.296875 
Q 4.15625 48 6.765625 55.734375 
Q 9.375 63.484375 14.515625 67.671875 
Q 19.671875 71.875 27.484375 71.875 
Q 33.25 71.875 37.59375 69.546875 
Q 41.9375 67.234375 44.765625 62.859375 
Q 47.609375 58.5 49.21875 52.21875 
Q 50.828125 45.953125 50.828125 35.296875 
Q 50.828125 22.703125 48.234375 14.96875 
Q 45.65625 7.234375 40.5 3 
Q 35.359375 -1.21875 27.484375 -1.21875 
Q 17.140625 -1.21875 11.234375 6.203125 
Q 4.15625 15.140625 4.15625 35.296875 
z
M 13.1875 35.296875 
Q 13.1875 17.671875 17.3125 11.828125 
Q 21.4375 6 27.484375 6 
Q 33.546875 6 37.671875 11.859375 
Q 41.796875 17.71875 41.796875 35.296875 
Q 41.796875 52.984375 37.671875 58.78125 
Q 33.546875 64.59375 27.390625 64.59375 
Q 21.34375 64.59375 17.71875 59.46875 
Q 13.1875 52.9375 13.1875 35.296875 
z
" id="ArialMT-48"/>
      </defs>
      <g style="fill:#262626;" transform="translate(291.373878 269.373594)scale(0.11 -0.11)">
       <use xlink:href="#ArialMT-49"/>
       <use x="55.615234" xlink:href="#ArialMT-48"/>
      </g>
     </g>
    </g>
    <g id="xtick_10">
     <g id="line2d_10">
      <path clip-path="url(#pa2e9dc0fc4)" d="M 327.927273 252 
L 327.927273 34.56 
" style="fill:none;stroke:#ffffff;stroke-linecap:round;"/>
     </g>
     <g id="text_10">
      <!-- 11 -->
      <g style="fill:#262626;" transform="translate(321.816257 269.373594)scale(0.11 -0.11)">
       <use xlink:href="#ArialMT-49"/>
       <use x="55.505859" xlink:href="#ArialMT-49"/>
      </g>
     </g>
    </g>
    <g id="xtick_11">
     <g id="line2d_11">
      <path clip-path="url(#pa2e9dc0fc4)" d="M 358.363636 252 
L 358.363636 34.56 
" style="fill:none;stroke:#ffffff;stroke-linecap:round;"/>
     </g>
     <g id="text_11">
      <!-- 12 -->
      <g style="fill:#262626;" transform="translate(352.246605 269.373594)scale(0.11 -0.11)">
       <use xlink:href="#ArialMT-49"/>
       <use x="55.615234" xlink:href="#ArialMT-50"/>
      </g>
     </g>
    </g>
    <g id="xtick_12">
     <g id="line2d_12">
      <path clip-path="url(#pa2e9dc0fc4)" d="M 388.8 252 
L 388.8 34.56 
" style="fill:none;stroke:#ffffff;stroke-linecap:round;"/>
     </g>
     <g id="text_12">
      <!-- 13 -->
      <g style="fill:#262626;" transform="translate(382.682969 269.373594)scale(0.11 -0.11)">
       <use xlink:href="#ArialMT-49"/>
       <use x="55.615234" xlink:href="#ArialMT-51"/>
      </g>
     </g>
    </g>
    <g id="text_13">
     <!-- SNR (dB) -->
     <defs>
      <path d="M 4.5 23 
L 13.421875 23.78125 
Q 14.0625 18.40625 16.375 14.96875 
Q 18.703125 11.53125 23.578125 9.40625 
Q 28.46875 7.28125 34.578125 7.28125 
Q 39.984375 7.28125 44.140625 8.890625 
Q 48.296875 10.5 50.3125 13.296875 
Q 52.34375 16.109375 52.34375 19.4375 
Q 52.34375 22.796875 50.390625 25.3125 
Q 48.4375 27.828125 43.953125 29.546875 
Q 41.0625 30.671875 31.203125 33.03125 
Q 21.34375 35.40625 17.390625 37.5 
Q 12.25 40.1875 9.734375 44.15625 
Q 7.234375 48.140625 7.234375 53.078125 
Q 7.234375 58.5 10.296875 63.203125 
Q 13.375 67.921875 19.28125 70.359375 
Q 25.203125 72.796875 32.421875 72.796875 
Q 40.375 72.796875 46.453125 70.234375 
Q 52.546875 67.671875 55.8125 62.6875 
Q 59.078125 57.71875 59.328125 51.421875 
L 50.25 50.734375 
Q 49.515625 57.515625 45.28125 60.984375 
Q 41.0625 64.453125 32.8125 64.453125 
Q 24.21875 64.453125 20.28125 61.296875 
Q 16.359375 58.15625 16.359375 53.71875 
Q 16.359375 49.859375 19.140625 47.359375 
Q 21.875 44.875 33.421875 42.265625 
Q 44.96875 39.65625 49.265625 37.703125 
Q 55.515625 34.8125 58.484375 30.390625 
Q 61.46875 25.984375 61.46875 20.21875 
Q 61.46875 14.5 58.203125 9.4375 
Q 54.9375 4.390625 48.796875 1.578125 
Q 42.671875 -1.21875 35.015625 -1.21875 
Q 25.296875 -1.21875 18.71875 1.609375 
Q 12.15625 4.4375 8.421875 10.125 
Q 4.6875 15.828125 4.5 23 
z
" id="ArialMT-83"/>
      <path d="M 7.625 0 
L 7.625 71.578125 
L 17.328125 71.578125 
L 54.9375 15.375 
L 54.9375 71.578125 
L 64.015625 71.578125 
L 64.015625 0 
L 54.296875 0 
L 16.703125 56.25 
L 16.703125 0 
z
" id="ArialMT-78"/>
      <path d="M 7.859375 0 
L 7.859375 71.578125 
L 39.59375 71.578125 
Q 49.171875 71.578125 54.140625 69.640625 
Q 59.125 67.71875 62.109375 62.828125 
Q 65.09375 57.953125 65.09375 52.046875 
Q 65.09375 44.4375 60.15625 39.203125 
Q 55.21875 33.984375 44.921875 32.5625 
Q 48.6875 30.765625 50.640625 29 
Q 54.78125 25.203125 58.5 19.484375 
L 70.953125 0 
L 59.03125 0 
L 49.5625 14.890625 
Q 45.40625 21.34375 42.71875 24.75 
Q 40.046875 28.171875 37.921875 29.53125 
Q 35.796875 30.90625 33.59375 31.453125 
Q 31.984375 31.78125 28.328125 31.78125 
L 17.328125 31.78125 
L 17.328125 0 
z
M 17.328125 39.984375 
L 37.703125 39.984375 
Q 44.1875 39.984375 47.84375 41.328125 
Q 51.515625 42.671875 53.421875 45.625 
Q 55.328125 48.578125 55.328125 52.046875 
Q 55.328125 57.125 51.640625 60.390625 
Q 47.953125 63.671875 39.984375 63.671875 
L 17.328125 63.671875 
z
" id="ArialMT-82"/>
      <path id="ArialMT-32"/>
      <path d="M 23.390625 -21.046875 
Q 16.109375 -11.859375 11.078125 0.4375 
Q 6.0625 12.75 6.0625 25.921875 
Q 6.0625 37.546875 9.8125 48.1875 
Q 14.203125 60.546875 23.390625 72.796875 
L 29.6875 72.796875 
Q 23.78125 62.640625 21.875 58.296875 
Q 18.890625 51.5625 17.1875 44.234375 
Q 15.09375 35.109375 15.09375 25.875 
Q 15.09375 2.390625 29.6875 -21.046875 
z
" id="ArialMT-40"/>
      <path d="M 40.234375 0 
L 40.234375 6.546875 
Q 35.296875 -1.171875 25.734375 -1.171875 
Q 19.53125 -1.171875 14.328125 2.25 
Q 9.125 5.671875 6.265625 11.796875 
Q 3.421875 17.921875 3.421875 25.875 
Q 3.421875 33.640625 6 39.96875 
Q 8.59375 46.296875 13.765625 49.65625 
Q 18.953125 53.03125 25.34375 53.03125 
Q 30.03125 53.03125 33.6875 51.046875 
Q 37.359375 49.078125 39.65625 45.90625 
L 39.65625 71.578125 
L 48.390625 71.578125 
L 48.390625 0 
z
M 12.453125 25.875 
Q 12.453125 15.921875 16.640625 10.984375 
Q 20.84375 6.0625 26.5625 6.0625 
Q 32.328125 6.0625 36.34375 10.765625 
Q 40.375 15.484375 40.375 25.140625 
Q 40.375 35.796875 36.265625 40.765625 
Q 32.171875 45.75 26.171875 45.75 
Q 20.3125 45.75 16.375 40.96875 
Q 12.453125 36.1875 12.453125 25.875 
z
" id="ArialMT-100"/>
      <path d="M 7.328125 0 
L 7.328125 71.578125 
L 34.1875 71.578125 
Q 42.390625 71.578125 47.34375 69.40625 
Q 52.296875 67.234375 55.09375 62.71875 
Q 57.90625 58.203125 57.90625 53.265625 
Q 57.90625 48.6875 55.421875 44.625 
Q 52.9375 40.578125 47.90625 38.09375 
Q 54.390625 36.1875 57.875 31.59375 
Q 61.375 27 61.375 20.75 
Q 61.375 15.71875 59.25 11.390625 
Q 57.125 7.078125 54 4.734375 
Q 50.875 2.390625 46.15625 1.1875 
Q 41.453125 0 34.625 0 
z
M 16.796875 41.5 
L 32.28125 41.5 
Q 38.578125 41.5 41.3125 42.328125 
Q 44.921875 43.40625 46.75 45.890625 
Q 48.578125 48.390625 48.578125 52.15625 
Q 48.578125 55.71875 46.875 58.421875 
Q 45.171875 61.140625 41.984375 62.140625 
Q 38.8125 63.140625 31.109375 63.140625 
L 16.796875 63.140625 
z
M 16.796875 8.453125 
L 34.625 8.453125 
Q 39.203125 8.453125 41.0625 8.796875 
Q 44.34375 9.375 46.53125 10.734375 
Q 48.734375 12.109375 50.140625 14.71875 
Q 51.5625 17.328125 51.5625 20.75 
Q 51.5625 24.75 49.515625 27.703125 
Q 47.46875 30.671875 43.828125 31.859375 
Q 40.1875 33.0625 33.34375 33.0625 
L 16.796875 33.0625 
z
" id="ArialMT-66"/>
      <path d="M 12.359375 -21.046875 
L 6.0625 -21.046875 
Q 20.65625 2.390625 20.65625 25.875 
Q 20.65625 35.0625 18.5625 44.09375 
Q 16.890625 51.421875 13.921875 58.15625 
Q 12.015625 62.546875 6.0625 72.796875 
L 12.359375 72.796875 
Q 21.53125 60.546875 25.921875 48.1875 
Q 29.6875 37.546875 29.6875 25.921875 
Q 29.6875 12.75 24.625 0.4375 
Q 19.578125 -11.859375 12.359375 -21.046875 
z
" id="ArialMT-41"/>
     </defs>
     <g style="fill:#262626;" transform="translate(195.730312 284.295469)scale(0.12 -0.12)">
      <use xlink:href="#ArialMT-83"/>
      <use x="66.699219" xlink:href="#ArialMT-78"/>
      <use x="138.916016" xlink:href="#ArialMT-82"/>
      <use x="211.132812" xlink:href="#ArialMT-32"/>
      <use x="238.916016" xlink:href="#ArialMT-40"/>
      <use x="272.216797" xlink:href="#ArialMT-100"/>
      <use x="327.832031" xlink:href="#ArialMT-66"/>
      <use x="394.53125" xlink:href="#ArialMT-41"/>
     </g>
    </g>
   </g>
   <g id="matplotlib.axis_2">
    <g id="ytick_1">
     <g id="line2d_13">
      <path clip-path="url(#pa2e9dc0fc4)" d="M 54 252 
L 388.8 252 
" style="fill:none;stroke:#ffffff;stroke-linecap:round;"/>
     </g>
     <g id="text_14">
      <!-- 0.0 -->
      <defs>
       <path d="M 9.078125 0 
L 9.078125 10.015625 
L 19.09375 10.015625 
L 19.09375 0 
z
" id="ArialMT-46"/>
      </defs>
      <g style="fill:#262626;" transform="translate(29.21 255.936797)scale(0.11 -0.11)">
       <use xlink:href="#ArialMT-48"/>
       <use x="55.615234" xlink:href="#ArialMT-46"/>
       <use x="83.398438" xlink:href="#ArialMT-48"/>
      </g>
     </g>
    </g>
    <g id="ytick_2">
     <g id="line2d_14">
      <path clip-path="url(#pa2e9dc0fc4)" d="M 54 229.35 
L 388.8 229.35 
" style="fill:none;stroke:#ffffff;stroke-linecap:round;"/>
     </g>
     <g id="text_15">
      <!-- 0.5 -->
      <g style="fill:#262626;" transform="translate(29.21 233.286797)scale(0.11 -0.11)">
       <use xlink:href="#ArialMT-48"/>
       <use x="55.615234" xlink:href="#ArialMT-46"/>
       <use x="83.398438" xlink:href="#ArialMT-53"/>
      </g>
     </g>
    </g>
    <g id="ytick_3">
     <g id="line2d_15">
      <path clip-path="url(#pa2e9dc0fc4)" d="M 54 206.7 
L 388.8 206.7 
" style="fill:none;stroke:#ffffff;stroke-linecap:round;"/>
     </g>
     <g id="text_16">
      <!-- 1.0 -->
      <g style="fill:#262626;" transform="translate(29.21 210.636797)scale(0.11 -0.11)">
       <use xlink:href="#ArialMT-49"/>
       <use x="55.615234" xlink:href="#ArialMT-46"/>
       <use x="83.398438" xlink:href="#ArialMT-48"/>
      </g>
     </g>
    </g>
    <g id="ytick_4">
     <g id="line2d_16">
      <path clip-path="url(#pa2e9dc0fc4)" d="M 54 184.05 
L 388.8 184.05 
" style="fill:none;stroke:#ffffff;stroke-linecap:round;"/>
     </g>
     <g id="text_17">
      <!-- 1.5 -->
      <g style="fill:#262626;" transform="translate(29.21 187.986797)scale(0.11 -0.11)">
       <use xlink:href="#ArialMT-49"/>
       <use x="55.615234" xlink:href="#ArialMT-46"/>
       <use x="83.398438" xlink:href="#ArialMT-53"/>
      </g>
     </g>
    </g>
    <g id="ytick_5">
     <g id="line2d_17">
      <path clip-path="url(#pa2e9dc0fc4)" d="M 54 161.4 
L 388.8 161.4 
" style="fill:none;stroke:#ffffff;stroke-linecap:round;"/>
     </g>
     <g id="text_18">
      <!-- 2.0 -->
      <g style="fill:#262626;" transform="translate(29.21 165.336797)scale(0.11 -0.11)">
       <use xlink:href="#ArialMT-50"/>
       <use x="55.615234" xlink:href="#ArialMT-46"/>
       <use x="83.398438" xlink:href="#ArialMT-48"/>
      </g>
     </g>
    </g>
    <g id="ytick_6">
     <g id="line2d_18">
      <path clip-path="url(#pa2e9dc0fc4)" d="M 54 138.75 
L 388.8 138.75 
" style="fill:none;stroke:#ffffff;stroke-linecap:round;"/>
     </g>
     <g id="text_19">
      <!-- 2.5 -->
      <g style="fill:#262626;" transform="translate(29.21 142.686797)scale(0.11 -0.11)">
       <use xlink:href="#ArialMT-50"/>
       <use x="55.615234" xlink:href="#ArialMT-46"/>
       <use x="83.398438" xlink:href="#ArialMT-53"/>
      </g>
     </g>
    </g>
    <g id="ytick_7">
     <g id="line2d_19">
      <path clip-path="url(#pa2e9dc0fc4)" d="M 54 116.1 
L 388.8 116.1 
" style="fill:none;stroke:#ffffff;stroke-linecap:round;"/>
     </g>
     <g id="text_20">
      <!-- 3.0 -->
      <g style="fill:#262626;" transform="translate(29.21 120.036797)scale(0.11 -0.11)">
       <use xlink:href="#ArialMT-51"/>
       <use x="55.615234" xlink:href="#ArialMT-46"/>
       <use x="83.398438" xlink:href="#ArialMT-48"/>
      </g>
     </g>
    </g>
    <g id="ytick_8">
     <g id="line2d_20">
      <path clip-path="url(#pa2e9dc0fc4)" d="M 54 93.45 
L 388.8 93.45 
" style="fill:none;stroke:#ffffff;stroke-linecap:round;"/>
     </g>
     <g id="text_21">
      <!-- 3.5 -->
      <g style="fill:#262626;" transform="translate(29.21 97.386797)scale(0.11 -0.11)">
       <use xlink:href="#ArialMT-51"/>
       <use x="55.615234" xlink:href="#ArialMT-46"/>
       <use x="83.398438" xlink:href="#ArialMT-53"/>
      </g>
     </g>
    </g>
    <g id="ytick_9">
     <g id="line2d_21">
      <path clip-path="url(#pa2e9dc0fc4)" d="M 54 70.8 
L 388.8 70.8 
" style="fill:none;stroke:#ffffff;stroke-linecap:round;"/>
     </g>
     <g id="text_22">
      <!-- 4.0 -->
      <g style="fill:#262626;" transform="translate(29.21 74.736797)scale(0.11 -0.11)">
       <use xlink:href="#ArialMT-52"/>
       <use x="55.615234" xlink:href="#ArialMT-46"/>
       <use x="83.398438" xlink:href="#ArialMT-48"/>
      </g>
     </g>
    </g>
    <g id="ytick_10">
     <g id="line2d_22">
      <path clip-path="url(#pa2e9dc0fc4)" d="M 54 48.15 
L 388.8 48.15 
" style="fill:none;stroke:#ffffff;stroke-linecap:round;"/>
     </g>
     <g id="text_23">
      <!-- 4.5 -->
      <g style="fill:#262626;" transform="translate(29.21 52.086797)scale(0.11 -0.11)">
       <use xlink:href="#ArialMT-52"/>
       <use x="55.615234" xlink:href="#ArialMT-46"/>
       <use x="83.398438" xlink:href="#ArialMT-53"/>
      </g>
     </g>
    </g>
    <g id="text_24">
     <!-- PESQ (MOS) -->
     <defs>
      <path d="M 7.71875 0 
L 7.71875 71.578125 
L 34.71875 71.578125 
Q 41.84375 71.578125 45.609375 70.90625 
Q 50.875 70.015625 54.4375 67.546875 
Q 58.015625 65.09375 60.1875 60.640625 
Q 62.359375 56.203125 62.359375 50.875 
Q 62.359375 41.75 56.546875 35.421875 
Q 50.734375 29.109375 35.546875 29.109375 
L 17.1875 29.109375 
L 17.1875 0 
z
M 17.1875 37.546875 
L 35.6875 37.546875 
Q 44.875 37.546875 48.734375 40.96875 
Q 52.59375 44.390625 52.59375 50.59375 
Q 52.59375 55.078125 50.3125 58.265625 
Q 48.046875 61.46875 44.34375 62.5 
Q 41.9375 63.140625 35.5 63.140625 
L 17.1875 63.140625 
z
" id="ArialMT-80"/>
      <path d="M 7.90625 0 
L 7.90625 71.578125 
L 59.671875 71.578125 
L 59.671875 63.140625 
L 17.390625 63.140625 
L 17.390625 41.21875 
L 56.984375 41.21875 
L 56.984375 32.8125 
L 17.390625 32.8125 
L 17.390625 8.453125 
L 61.328125 8.453125 
L 61.328125 0 
z
" id="ArialMT-69"/>
      <path d="M 61.96875 7.671875 
Q 68.5625 3.125 74.125 1.03125 
L 71.34375 -5.5625 
Q 63.625 -2.78125 55.953125 3.21875 
Q 48 -1.21875 38.375 -1.21875 
Q 28.65625 -1.21875 20.75 3.46875 
Q 12.84375 8.15625 8.5625 16.640625 
Q 4.296875 25.140625 4.296875 35.796875 
Q 4.296875 46.390625 8.59375 55.078125 
Q 12.890625 63.765625 20.828125 68.3125 
Q 28.765625 72.859375 38.578125 72.859375 
Q 48.484375 72.859375 56.4375 68.140625 
Q 64.40625 63.421875 68.578125 54.953125 
Q 72.75 46.484375 72.75 35.84375 
Q 72.75 27 70.0625 19.9375 
Q 67.390625 12.890625 61.96875 7.671875 
z
M 41.109375 19.78125 
Q 49.3125 17.484375 54.640625 12.9375 
Q 62.984375 20.5625 62.984375 35.84375 
Q 62.984375 44.53125 60.03125 51.015625 
Q 57.078125 57.515625 51.390625 61.109375 
Q 45.703125 64.703125 38.625 64.703125 
Q 28.03125 64.703125 21.046875 57.453125 
Q 14.0625 50.203125 14.0625 35.796875 
Q 14.0625 21.828125 20.96875 14.359375 
Q 27.875 6.890625 38.625 6.890625 
Q 43.703125 6.890625 48.1875 8.796875 
Q 43.75 11.671875 38.8125 12.890625 
z
" id="ArialMT-81"/>
      <path d="M 7.421875 0 
L 7.421875 71.578125 
L 21.6875 71.578125 
L 38.625 20.90625 
Q 40.96875 13.8125 42.046875 10.296875 
Q 43.265625 14.203125 45.84375 21.78125 
L 62.984375 71.578125 
L 75.734375 71.578125 
L 75.734375 0 
L 66.609375 0 
L 66.609375 59.90625 
L 45.796875 0 
L 37.25 0 
L 16.546875 60.9375 
L 16.546875 0 
z
" id="ArialMT-77"/>
      <path d="M 4.828125 34.859375 
Q 4.828125 52.6875 14.390625 62.765625 
Q 23.96875 72.859375 39.109375 72.859375 
Q 49.03125 72.859375 56.984375 68.109375 
Q 64.9375 63.375 69.109375 54.90625 
Q 73.296875 46.4375 73.296875 35.6875 
Q 73.296875 24.8125 68.890625 16.21875 
Q 64.5 7.625 56.4375 3.203125 
Q 48.390625 -1.21875 39.0625 -1.21875 
Q 28.953125 -1.21875 20.984375 3.65625 
Q 13.03125 8.546875 8.921875 16.984375 
Q 4.828125 25.4375 4.828125 34.859375 
z
M 14.59375 34.71875 
Q 14.59375 21.78125 21.546875 14.328125 
Q 28.515625 6.890625 39.015625 6.890625 
Q 49.703125 6.890625 56.609375 14.40625 
Q 63.53125 21.921875 63.53125 35.75 
Q 63.53125 44.484375 60.578125 51 
Q 57.625 57.515625 51.921875 61.109375 
Q 46.234375 64.703125 39.15625 64.703125 
Q 29.109375 64.703125 21.84375 57.78125 
Q 14.59375 50.875 14.59375 34.71875 
z
" id="ArialMT-79"/>
     </defs>
     <g style="fill:#262626;" transform="translate(22.684375 179.282813)rotate(-90)scale(0.12 -0.12)">
      <use xlink:href="#ArialMT-80"/>
      <use x="66.699219" xlink:href="#ArialMT-69"/>
      <use x="133.398438" xlink:href="#ArialMT-83"/>
      <use x="200.097656" xlink:href="#ArialMT-81"/>
      <use x="277.880859" xlink:href="#ArialMT-32"/>
      <use x="305.664062" xlink:href="#ArialMT-40"/>
      <use x="338.964844" xlink:href="#ArialMT-77"/>
      <use x="422.265625" xlink:href="#ArialMT-79"/>
      <use x="500.048828" xlink:href="#ArialMT-83"/>
      <use x="566.748047" xlink:href="#ArialMT-41"/>
     </g>
    </g>
   </g>
   <g id="line2d_23">
    <path clip-path="url(#pa2e9dc0fc4)" d="M -1 212.343765 
L -0.785455 212.299986 
L 2.258182 212.68413 
L 5.301818 211.559784 
L 8.345455 213.738714 
L 11.389091 213.165216 
L 14.432727 212.423655 
L 17.476364 211.387191 
L 20.52 211.355481 
L 23.563636 212.468955 
L 26.607273 212.59353 
L 29.650909 211.726941 
L 32.694545 209.302485 
L 35.738182 212.162274 
L 38.781818 211.612785 
L 44.869091 211.423884 
L 47.912727 210.98991 
L 50.956364 209.25492 
L 54 209.981985 
L 57.043636 210.558201 
L 60.087273 211.28889 
L 63.130909 210.51879 
L 66.174545 209.057865 
L 69.218182 211.994211 
L 72.261818 208.559565 
L 75.305455 207.082785 
L 78.349091 207.5607 
L 81.392727 205.39989 
L 84.436364 202.20624 
L 87.48 205.16886 
L 90.523636 206.35572 
L 93.567273 205.05108 
L 96.610909 206.15187 
L 99.654545 207.831141 
L 102.698182 206.65923 
L 105.741818 206.22435 
L 108.785455 206.28324 
L 111.829091 204.31269 
L 114.872727 206.2017 
L 117.916364 206.01597 
L 120.96 203.51088 
L 124.003636 205.46784 
L 130.090909 205.10091 
L 133.134545 204.77475 
L 136.178182 204.71133 
L 139.221818 204.44406 
L 142.265455 203.56071 
L 145.309091 203.87328 
L 148.352727 203.77362 
L 151.396364 203.90952 
L 154.44 202.97181 
L 157.483636 202.69095 
L 160.527273 203.24361 
L 163.570909 202.32402 
L 166.614545 202.86309 
L 169.658182 202.34667 
L 172.701818 202.09752 
L 175.745455 201.52674 
L 178.789091 201.40896 
L 181.832727 201.90273 
L 184.876364 201.7623 
L 190.963636 199.75551 
L 194.007273 199.37952 
L 197.050909 198.61848 
L 200.094545 198.02505 
L 203.138182 196.51656 
L 209.225455 193.90728 
L 212.269091 192.84273 
L 215.312727 190.04319 
L 218.356364 186.25611 
L 221.4 185.65362 
L 224.443636 181.71705 
L 227.487273 178.04775 
L 230.530909 176.49849 
L 233.574545 171.42942 
L 236.618182 168.08628 
L 239.661818 163.00815 
L 242.705455 158.7726 
L 245.749091 153.35472 
L 248.792727 148.29471 
L 251.836364 140.92893 
L 254.88 137.01501 
L 257.923636 129.49068 
L 260.967273 126.80439 
L 264.010909 122.10225 
L 267.054545 115.03998 
L 270.098182 107.66967 
L 273.141818 103.42506 
L 276.185455 97.01058 
L 279.229091 93.29145 
L 282.272727 90.29712 
L 285.316364 83.17143 
L 288.36 83.29374 
L 291.403636 71.07633 
L 294.447273 73.10577 
L 297.490909 72.87021 
L 300.534545 69.04689 
L 303.578182 60.34476 
L 306.621818 60.89289 
L 309.665455 57.9348 
L 312.709091 56.98803 
L 315.752727 55.42518 
L 318.796364 51.5928 
L 321.84 52.02768 
L 324.883636 49.97559 
L 327.927273 52.31307 
L 330.970909 49.75362 
L 334.014545 49.85781 
L 337.058182 48.83856 
L 340.101818 48.95634 
L 343.145455 48.52599 
L 346.189091 49.02882 
L 349.232727 48.15 
L 352.276364 48.40821 
L 355.32 48.15 
L 433 48.15 
L 433 48.15 
" style="fill:none;stroke:#4c72b0;stroke-linecap:round;stroke-width:1.5;"/>
   </g>
   <g id="line2d_24">
    <path clip-path="url(#pa2e9dc0fc4)" d="M -1 213.682454 
L -0.785455 213.760911 
L 2.258182 213.50406 
L 5.301818 211.25718 
L 8.345455 211.363635 
L 11.389091 212.564085 
L 14.432727 211.46556 
L 17.476364 212.75661 
L 20.52 211.943475 
L 23.563636 212.690925 
L 26.607273 211.958424 
L 29.650909 212.5437 
L 32.694545 212.440869 
L 35.738182 209.442915 
L 38.781818 211.29795 
L 41.825455 211.079151 
L 44.869091 209.183346 
L 47.912727 209.59014 
L 50.956364 208.94688 
L 54 211.491381 
L 57.043636 209.474625 
L 60.087273 210.726264 
L 63.130909 208.694106 
L 66.174545 209.307015 
L 69.218182 208.508376 
L 72.261818 207.949374 
L 75.305455 209.54031 
L 78.349091 207.142581 
L 81.392727 206.13828 
L 84.436364 208.618455 
L 87.48 202.68189 
L 90.523636 207.686181 
L 93.567273 205.60827 
L 96.610909 207.63318 
L 99.654545 205.57203 
L 102.698182 207.60147 
L 105.741818 206.26512 
L 108.785455 206.0658 
L 111.829091 205.64451 
L 114.872727 206.4735 
L 117.916364 205.95255 
L 120.96 205.81212 
L 124.003636 205.39083 
L 127.047273 205.08279 
L 130.090909 205.26399 
L 133.134545 204.81099 
L 139.221818 204.5256 
L 142.265455 203.87781 
L 145.309091 204.06354 
L 148.352727 203.99106 
L 154.44 203.50635 
L 157.483636 204.06354 
L 160.527273 203.45652 
L 163.570909 204.06354 
L 166.614545 205.1598 
L 172.701818 207.15753 
L 178.789091 205.41801 
L 181.832727 203.36592 
L 184.876364 201.69435 
L 187.92 195.65586 
L 190.963636 186.02961 
L 194.007273 177.68535 
L 197.050909 168.13158 
L 200.094545 152.38983 
L 203.138182 139.54275 
L 206.181818 122.47824 
L 209.225455 107.06718 
L 212.269091 96.00039 
L 215.312727 87.99135 
L 218.356364 74.26998 
L 221.4 66.72753 
L 224.443636 57.77625 
L 227.487273 53.32779 
L 230.530909 52.59393 
L 233.574545 48.34026 
L 236.618182 49.18284 
L 239.661818 48.2859 
L 242.705455 48.81591 
L 245.749091 48.15 
L 248.792727 48.94275 
L 251.836364 48.15 
L 433 48.15 
L 433 48.15 
" style="fill:none;stroke:#dd8452;stroke-linecap:round;stroke-width:1.5;"/>
   </g>
   <g id="line2d_25">
    <path clip-path="url(#pa2e9dc0fc4)" d="M -1 212.870311 
L 2.258182 213.514026 
L 5.301818 210.974055 
L 8.345455 211.032945 
L 11.389091 212.43951 
L 14.432727 211.50633 
L 17.476364 212.346645 
L 20.52 212.490246 
L 23.563636 211.06692 
L 26.607273 211.906329 
L 32.694545 211.4112 
L 35.738182 212.651061 
L 38.781818 211.750044 
L 41.825455 211.0035 
L 44.869091 210.952764 
L 47.912727 211.421166 
L 50.956364 212.101119 
L 54 211.870995 
L 57.043636 210.768846 
L 60.087273 210.345291 
L 63.130909 211.102254 
L 66.174545 209.790366 
L 69.218182 207.58335 
L 72.261818 208.142805 
L 75.305455 205.98879 
L 78.349091 208.47576 
L 81.392727 208.43499 
L 84.436364 207.56976 
L 87.48 205.78494 
L 90.523636 205.92537 
L 93.567273 208.192635 
L 99.654545 203.56071 
L 102.698182 205.00578 
L 105.741818 205.18698 
L 108.785455 207.159795 
L 111.829091 206.19264 
L 114.872727 206.3376 
L 117.916364 206.31042 
L 120.96 205.84383 
L 124.003636 206.62299 
L 127.047273 206.907021 
L 130.090909 209.21868 
L 133.134545 212.831355 
L 136.178182 217.755465 
L 139.221818 219.374034 
L 142.265455 216.72036 
L 145.309091 208.565454 
L 148.352727 196.20852 
L 151.396364 178.49169 
L 154.44 155.29356 
L 157.483636 127.36611 
L 160.527273 102.74556 
L 163.570909 76.14087 
L 166.614545 60.3357 
L 169.658182 55.93707 
L 172.701818 50.71398 
L 175.745455 50.15679 
L 178.789091 48.15 
L 433 48.15 
L 433 48.15 
" style="fill:none;stroke:#55a868;stroke-linecap:round;stroke-width:1.5;"/>
   </g>
   <g id="line2d_26">
    <path clip-path="url(#pa2e9dc0fc4)" d="M -1 212.898326 
L -0.785455 212.98764 
L 2.258182 211.966125 
L 5.301818 211.654461 
L 8.345455 212.4984 
L 11.389091 212.246985 
L 14.432727 211.443816 
L 20.52 213.062385 
L 23.563636 211.62411 
L 26.607273 211.889115 
L 29.650909 211.498629 
L 32.694545 213.062385 
L 35.738182 213.308364 
L 38.781818 209.389914 
L 41.825455 210.65469 
L 44.869091 211.48821 
L 47.912727 209.895915 
L 50.956364 210.661485 
L 57.043636 211.4112 
L 60.087273 210.307239 
L 63.130909 210.363864 
L 66.174545 209.496369 
L 69.218182 208.219815 
L 72.261818 207.960246 
L 75.305455 208.801014 
L 78.349091 204.54372 
L 81.392727 208.028649 
L 84.436364 206.49615 
L 87.48 205.84836 
L 90.523636 206.10204 
L 93.567273 206.951415 
L 96.610909 204.03183 
L 99.654545 206.24247 
L 102.698182 206.955039 
L 105.741818 206.35572 
L 108.785455 207.194676 
L 114.872727 209.356845 
L 117.916364 213.165216 
L 120.96 217.664865 
L 124.003636 221.882295 
L 127.047273 221.569725 
L 130.090909 215.978799 
L 133.134545 204.21303 
L 136.178182 184.26744 
L 139.221818 158.34225 
L 142.265455 129.40008 
L 148.352727 83.90982 
L 151.396364 64.08654 
L 154.44 53.86233 
L 157.483636 51.15339 
L 160.527273 48.74796 
L 163.570909 48.15 
L 433 48.15 
L 433 48.15 
" style="fill:none;stroke:#c44e52;stroke-linecap:round;stroke-width:1.5;"/>
   </g>
   <g id="line2d_27">
    <path clip-path="url(#pa2e9dc0fc4)" d="M -1 210.330107 
L -0.785455 210.062166 
L 2.258182 212.549136 
L 5.301818 212.65242 
L 8.345455 211.966125 
L 11.389091 212.789226 
L 14.432727 213.32739 
L 17.476364 212.64336 
L 20.52 212.55276 
L 23.563636 211.505424 
L 26.607273 211.62864 
L 29.650909 210.780624 
L 32.694545 210.640194 
L 35.738182 212.762499 
L 38.781818 210.516525 
L 41.825455 212.42139 
L 44.869091 209.738271 
L 47.912727 210.93555 
L 50.956364 208.526949 
L 54 208.841331 
L 57.043636 211.14846 
L 60.087273 210.126945 
L 63.130909 210.755256 
L 66.174545 208.576779 
L 69.218182 208.691841 
L 72.261818 206.984484 
L 75.305455 210.807351 
L 78.349091 208.592181 
L 81.392727 206.8359 
L 84.436364 205.90272 
L 87.48 203.22549 
L 90.523636 206.01597 
L 93.567273 203.76003 
L 96.610909 200.95596 
L 99.654545 206.58675 
L 102.698182 208.350279 
L 105.741818 208.229781 
L 108.785455 210.726264 
L 111.829091 216.43497 
L 114.872727 221.738694 
L 117.916364 224.31264 
L 120.96 221.243565 
L 124.003636 211.795344 
L 127.047273 194.76345 
L 133.134545 136.44423 
L 136.178182 105.84861 
L 139.221818 81.64482 
L 142.265455 62.45574 
L 145.309091 52.88838 
L 151.396364 48.15 
L 433 48.15 
L 433 48.15 
" style="fill:none;stroke:#8172b3;stroke-linecap:round;stroke-width:1.5;"/>
   </g>
   <g id="line2d_28">
    <path clip-path="url(#pa2e9dc0fc4)" d="M -1 212.784806 
L -0.785455 212.890245 
L 2.258182 212.781525 
L 5.301818 213.187866 
L 8.345455 212.446305 
L 11.389091 211.020714 
L 14.432727 212.328525 
L 17.476364 212.010519 
L 20.52 211.7736 
L 23.563636 212.14053 
L 26.607273 212.676429 
L 29.650909 212.468955 
L 32.694545 209.609619 
L 35.738182 211.40214 
L 38.781818 210.729435 
L 41.825455 210.004635 
L 44.869091 210.226605 
L 47.912727 208.70679 
L 50.956364 209.089575 
L 54 209.624115 
L 57.043636 210.653784 
L 60.087273 208.529214 
L 63.130909 207.159795 
L 66.174545 208.523325 
L 69.218182 209.324229 
L 72.261818 205.0692 
L 75.305455 206.44179 
L 78.349091 206.04315 
L 81.392727 208.348014 
L 84.436364 207.082785 
L 87.48 205.88007 
L 90.523636 205.62639 
L 93.567273 204.81099 
L 96.610909 206.47803 
L 99.654545 205.5675 
L 102.698182 207.88686 
L 105.741818 211.005765 
L 108.785455 216.19488 
L 111.829091 222.376065 
L 114.872727 227.434716 
L 117.916364 223.522155 
L 120.96 209.61279 
L 124.003636 182.40108 
L 127.047273 148.54386 
L 130.090909 108.28575 
L 133.134545 76.81131 
L 136.178182 54.92688 
L 139.221818 48.15 
L 142.265455 48.77061 
L 145.309091 48.15 
L 148.352727 48.15 
L 151.396364 48.15 
L 154.44 48.15 
L 157.483636 48.15 
L 160.527273 48.15 
L 163.570909 48.15 
L 166.614545 48.15 
L 169.658182 48.15 
L 172.701818 48.15 
L 175.745455 48.15 
L 178.789091 48.15 
L 181.832727 48.15 
L 184.876364 48.15 
L 187.92 48.15 
L 190.963636 48.15 
L 194.007273 48.15 
L 197.050909 48.15 
L 200.094545 48.15 
L 203.138182 48.15 
L 206.181818 48.15 
L 209.225455 48.15 
L 212.269091 48.15 
L 215.312727 48.15 
L 218.356364 48.15 
L 221.4 48.15 
L 224.443636 48.15 
L 227.487273 48.15 
L 230.530909 48.15 
L 233.574545 48.15 
L 236.618182 48.15 
L 239.661818 48.15 
L 242.705455 48.15 
L 245.749091 48.15 
L 248.792727 48.15 
L 251.836364 48.15 
L 254.88 48.15 
L 257.923636 48.15 
L 260.967273 48.15 
L 264.010909 48.15 
L 267.054545 48.15 
L 270.098182 48.15 
L 273.141818 48.15 
L 276.185455 48.15 
L 279.229091 48.15 
L 282.272727 48.15 
L 285.316364 48.15 
L 288.36 48.15 
L 291.403636 48.15 
L 294.447273 48.15 
L 297.490909 48.15 
L 300.534545 48.15 
L 303.578182 48.15 
L 306.621818 48.15 
L 309.665455 48.15 
L 312.709091 48.15 
L 315.752727 48.15 
L 318.796364 48.15 
L 321.84 48.15 
L 324.883636 48.15 
L 327.927273 48.15 
L 330.970909 48.15 
L 334.014545 48.15 
L 337.058182 48.15 
L 340.101818 48.15 
L 343.145455 48.15 
L 346.189091 48.15 
L 349.232727 48.15 
L 352.276364 48.15 
L 355.32 48.15 
L 358.363636 48.15 
" style="fill:none;stroke:#937860;stroke-linecap:round;stroke-width:1.5;"/>
   </g>
   <g id="line2d_29">
    <path clip-path="url(#pa2e9dc0fc4)" d="M -1 211.792226 
L -0.785455 211.830225 
L 2.258182 207.386295 
L 5.301818 210.06126 
L 8.345455 209.110866 
L 11.389091 212.840415 
L 14.432727 211.579716 
L 17.476364 211.100895 
L 20.52 213.297039 
L 23.563636 212.272806 
L 26.607273 212.348004 
L 29.650909 212.871219 
L 32.694545 212.224335 
L 35.738182 212.96499 
L 38.781818 210.266469 
L 41.825455 210.946875 
L 44.869091 212.24472 
L 47.912727 211.0941 
L 50.956364 211.76907 
L 54 213.450606 
L 57.043636 211.137135 
L 60.087273 210.16998 
L 63.130909 209.076891 
L 66.174545 207.70566 
L 69.218182 209.770434 
L 72.261818 208.469871 
L 75.305455 210.29682 
L 78.349091 205.90725 
L 81.392727 208.043145 
L 84.436364 206.26965 
L 87.48 207.119025 
L 90.523636 210.173604 
L 93.567273 214.424556 
L 99.654545 226.244685 
L 102.698182 227.93211 
L 105.741818 220.488414 
L 108.785455 204.29457 
L 111.829091 178.36032 
L 114.872727 145.60389 
L 117.916364 108.38541 
L 120.96 79.78752 
L 124.003636 60.93819 
L 127.047273 52.43991 
L 133.134545 48.15 
L 433 48.15 
L 433 48.15 
" style="fill:none;stroke:#da8bc3;stroke-linecap:round;stroke-width:1.5;"/>
   </g>
   <g id="line2d_30">
    <path clip-path="url(#pa2e9dc0fc4)" d="M -1 212.428095 
L -0.785455 212.375184 
L 2.258182 212.55729 
L 5.301818 213.053325 
L 8.345455 212.740755 
L 11.389091 212.019126 
L 14.432727 212.546871 
L 17.476364 210.012336 
L 20.52 209.48142 
L 23.563636 210.381531 
L 26.607273 210.81777 
L 29.650909 209.581986 
L 32.694545 211.558425 
L 35.738182 209.491839 
L 38.781818 210.78606 
L 44.869091 211.69206 
L 47.912727 207.360474 
L 50.956364 211.250385 
L 54 207.164325 
L 57.043636 209.761374 
L 60.087273 209.451975 
L 63.130909 208.853109 
L 66.174545 209.559336 
L 69.218182 209.040651 
L 72.261818 210.119244 
L 75.305455 208.580856 
L 78.349091 212.91516 
L 81.392727 218.388306 
L 84.436364 226.41456 
L 87.48 229.697904 
L 90.523636 225.926226 
L 93.567273 211.27077 
L 96.610909 184.38522 
L 99.654545 151.87341 
L 102.698182 114.8769 
L 105.741818 83.31186 
L 108.785455 62.70489 
L 111.829091 53.53164 
L 114.872727 50.61885 
L 117.916364 48.15 
L 433 48.15 
L 433 48.15 
" style="fill:none;stroke:#8c8c8c;stroke-linecap:round;stroke-width:1.5;"/>
   </g>
   <g id="line2d_31">
    <path clip-path="url(#pa2e9dc0fc4)" d="M -1 212.652977 
L -0.785455 212.536905 
L 2.258182 211.834755 
L 5.301818 211.448799 
L 8.345455 210.135099 
L 11.389091 212.238831 
L 14.432727 213.695679 
L 17.476364 210.653331 
L 20.52 212.848569 
L 23.563636 211.798515 
L 26.607273 212.425014 
L 29.650909 212.767935 
L 32.694545 209.914035 
L 35.738182 209.13261 
L 38.781818 212.236566 
L 41.825455 210.679605 
L 44.869091 210.062166 
L 47.912727 209.231364 
L 50.956364 211.285266 
L 54 211.629999 
L 57.043636 209.75775 
L 60.087273 205.06467 
L 63.130909 206.22435 
L 66.174545 207.132615 
L 69.218182 208.361151 
L 72.261818 209.880966 
L 75.305455 209.663979 
L 78.349091 219.987849 
L 81.392727 229.688391 
L 84.436364 233.71692 
L 87.48 222.256926 
L 90.523636 196.68417 
L 93.567273 149.83491 
L 96.610909 100.79766 
L 99.654545 70.31076 
L 102.698182 50.78646 
L 105.741818 49.45464 
L 108.785455 48.15 
L 111.829091 48.15 
L 114.872727 48.15 
L 117.916364 48.15 
L 120.96 48.15 
L 124.003636 48.15 
L 127.047273 48.15 
L 130.090909 48.15 
L 133.134545 48.15 
L 136.178182 48.15 
L 139.221818 48.15 
L 142.265455 48.15 
L 145.309091 48.15 
L 148.352727 48.15 
L 151.396364 48.15 
L 154.44 48.15 
L 157.483636 48.15 
L 160.527273 48.15 
L 163.570909 48.15 
L 166.614545 48.15 
L 169.658182 48.15 
L 172.701818 48.15 
L 175.745455 48.15 
L 178.789091 48.15 
L 181.832727 48.15 
L 184.876364 48.15 
L 187.92 48.15 
L 190.963636 48.15 
L 194.007273 48.15 
L 197.050909 48.15 
L 200.094545 48.15 
L 203.138182 48.15 
L 206.181818 48.15 
L 209.225455 48.15 
L 212.269091 48.15 
L 215.312727 48.15 
L 218.356364 48.15 
L 221.4 48.15 
L 224.443636 48.15 
L 227.487273 48.15 
L 230.530909 48.15 
L 233.574545 48.15 
L 236.618182 48.15 
L 239.661818 48.15 
L 242.705455 48.15 
L 245.749091 48.15 
L 248.792727 48.15 
L 251.836364 48.15 
L 254.88 48.15 
L 257.923636 48.15 
L 260.967273 48.15 
L 264.010909 48.15 
L 267.054545 48.15 
L 270.098182 48.15 
L 273.141818 48.15 
L 276.185455 48.15 
L 279.229091 48.15 
L 282.272727 48.15 
L 285.316364 48.15 
L 288.36 48.15 
L 291.403636 48.15 
L 294.447273 48.15 
L 297.490909 48.15 
" style="fill:none;stroke:#ccb974;stroke-linecap:round;stroke-width:1.5;"/>
   </g>
   <g id="line2d_32"/>
   <g id="line2d_33"/>
   <g id="line2d_34"/>
   <g id="line2d_35"/>
   <g id="line2d_36"/>
   <g id="line2d_37"/>
   <g id="line2d_38"/>
   <g id="line2d_39"/>
   <g id="line2d_40"/>
   <g id="line2d_41"/>
   <g id="patch_3">
    <path d="M 54 252 
L 54 34.56 
" style="fill:none;stroke:#ffffff;stroke-linecap:square;stroke-linejoin:miter;stroke-width:1.25;"/>
   </g>
   <g id="patch_4">
    <path d="M 388.8 252 
L 388.8 34.56 
" style="fill:none;stroke:#ffffff;stroke-linecap:square;stroke-linejoin:miter;stroke-width:1.25;"/>
   </g>
   <g id="patch_5">
    <path d="M 54 252 
L 388.8 252 
" style="fill:none;stroke:#ffffff;stroke-linecap:square;stroke-linejoin:miter;stroke-width:1.25;"/>
   </g>
   <g id="patch_6">
    <path d="M 54 34.56 
L 388.8 34.56 
" style="fill:none;stroke:#ffffff;stroke-linecap:square;stroke-linejoin:miter;stroke-width:1.25;"/>
   </g>
   <g id="legend_1">
    <g id="patch_7">
     <path d="M 277.423281 246.5 
L 381.1 246.5 
Q 383.3 246.5 383.3 244.3 
L 383.3 87.697812 
Q 383.3 85.497812 381.1 85.497812 
L 277.423281 85.497812 
Q 275.223281 85.497812 275.223281 87.697812 
L 275.223281 244.3 
Q 275.223281 246.5 277.423281 246.5 
z
" style="fill:#eaeaf2;opacity:0.8;stroke:#cccccc;stroke-linejoin:miter;"/>
    </g>
    <g id="line2d_42">
     <path d="M 279.623281 93.921406 
L 301.623281 93.921406 
" style="fill:none;"/>
    </g>
    <g id="line2d_43"/>
    <g id="text_25">
     <!-- FEC -->
     <defs>
      <path d="M 8.203125 0 
L 8.203125 71.578125 
L 56.5 71.578125 
L 56.5 63.140625 
L 17.671875 63.140625 
L 17.671875 40.96875 
L 51.265625 40.96875 
L 51.265625 32.515625 
L 17.671875 32.515625 
L 17.671875 0 
z
" id="ArialMT-70"/>
      <path d="M 58.796875 25.09375 
L 68.265625 22.703125 
Q 65.28125 11.03125 57.546875 4.90625 
Q 49.8125 -1.21875 38.625 -1.21875 
Q 27.046875 -1.21875 19.796875 3.484375 
Q 12.546875 8.203125 8.765625 17.140625 
Q 4.984375 26.078125 4.984375 36.328125 
Q 4.984375 47.515625 9.25 55.828125 
Q 13.53125 64.15625 21.40625 68.46875 
Q 29.296875 72.796875 38.765625 72.796875 
Q 49.515625 72.796875 56.828125 67.328125 
Q 64.15625 61.859375 67.046875 51.953125 
L 57.71875 49.75 
Q 55.21875 57.5625 50.484375 61.125 
Q 45.75 64.703125 38.578125 64.703125 
Q 30.328125 64.703125 24.78125 60.734375 
Q 19.234375 56.78125 16.984375 50.109375 
Q 14.75 43.453125 14.75 36.375 
Q 14.75 27.25 17.40625 20.4375 
Q 20.0625 13.625 25.671875 10.25 
Q 31.296875 6.890625 37.84375 6.890625 
Q 45.796875 6.890625 51.3125 11.46875 
Q 56.84375 16.0625 58.796875 25.09375 
z
" id="ArialMT-67"/>
     </defs>
     <g style="fill:#262626;" transform="translate(310.423281 97.771406)scale(0.11 -0.11)">
      <use xlink:href="#ArialMT-70"/>
      <use x="61.083984" xlink:href="#ArialMT-69"/>
      <use x="127.783203" xlink:href="#ArialMT-67"/>
     </g>
    </g>
    <g id="line2d_44">
     <path d="M 279.623281 109.48125 
L 301.623281 109.48125 
" style="fill:none;stroke:#4c72b0;stroke-linecap:round;stroke-width:1.5;"/>
    </g>
    <g id="line2d_45"/>
    <g id="text_26">
     <!-- No Code -->
     <defs>
      <path d="M 3.328125 25.921875 
Q 3.328125 40.328125 11.328125 47.265625 
Q 18.015625 53.03125 27.640625 53.03125 
Q 38.328125 53.03125 45.109375 46.015625 
Q 51.90625 39.015625 51.90625 26.65625 
Q 51.90625 16.65625 48.90625 10.90625 
Q 45.90625 5.171875 40.15625 2 
Q 34.421875 -1.171875 27.640625 -1.171875 
Q 16.75 -1.171875 10.03125 5.8125 
Q 3.328125 12.796875 3.328125 25.921875 
z
M 12.359375 25.921875 
Q 12.359375 15.96875 16.703125 11.015625 
Q 21.046875 6.0625 27.640625 6.0625 
Q 34.1875 6.0625 38.53125 11.03125 
Q 42.875 16.015625 42.875 26.21875 
Q 42.875 35.84375 38.5 40.796875 
Q 34.125 45.75 27.640625 45.75 
Q 21.046875 45.75 16.703125 40.8125 
Q 12.359375 35.890625 12.359375 25.921875 
z
" id="ArialMT-111"/>
      <path d="M 42.09375 16.703125 
L 51.171875 15.578125 
Q 49.03125 7.625 43.21875 3.21875 
Q 37.40625 -1.171875 28.375 -1.171875 
Q 17 -1.171875 10.328125 5.828125 
Q 3.65625 12.84375 3.65625 25.484375 
Q 3.65625 38.578125 10.390625 45.796875 
Q 17.140625 53.03125 27.875 53.03125 
Q 38.28125 53.03125 44.875 45.953125 
Q 51.46875 38.875 51.46875 26.03125 
Q 51.46875 25.25 51.421875 23.6875 
L 12.75 23.6875 
Q 13.234375 15.140625 17.578125 10.59375 
Q 21.921875 6.0625 28.421875 6.0625 
Q 33.25 6.0625 36.671875 8.59375 
Q 40.09375 11.140625 42.09375 16.703125 
z
M 13.234375 30.90625 
L 42.1875 30.90625 
Q 41.609375 37.453125 38.875 40.71875 
Q 34.671875 45.796875 27.984375 45.796875 
Q 21.921875 45.796875 17.796875 41.75 
Q 13.671875 37.703125 13.234375 30.90625 
z
" id="ArialMT-101"/>
     </defs>
     <g style="fill:#262626;" transform="translate(310.423281 113.33125)scale(0.11 -0.11)">
      <use xlink:href="#ArialMT-78"/>
      <use x="72.216797" xlink:href="#ArialMT-111"/>
      <use x="127.832031" xlink:href="#ArialMT-32"/>
      <use x="155.615234" xlink:href="#ArialMT-67"/>
      <use x="227.832031" xlink:href="#ArialMT-111"/>
      <use x="283.447266" xlink:href="#ArialMT-100"/>
      <use x="339.0625" xlink:href="#ArialMT-101"/>
     </g>
    </g>
    <g id="line2d_46">
     <path d="M 279.623281 125.175156 
L 301.623281 125.175156 
" style="fill:none;stroke:#dd8452;stroke-linecap:round;stroke-width:1.5;"/>
    </g>
    <g id="line2d_47"/>
    <g id="text_27">
     <!-- RS (255, 247) -->
     <defs>
      <path d="M 8.890625 0 
L 8.890625 10.015625 
L 18.890625 10.015625 
L 18.890625 0 
Q 18.890625 -5.515625 16.9375 -8.90625 
Q 14.984375 -12.3125 10.75 -14.15625 
L 8.296875 -10.40625 
Q 11.078125 -9.1875 12.390625 -6.8125 
Q 13.71875 -4.4375 13.875 0 
z
" id="ArialMT-44"/>
     </defs>
     <g style="fill:#262626;" transform="translate(310.423281 129.025156)scale(0.11 -0.11)">
      <use xlink:href="#ArialMT-82"/>
      <use x="72.216797" xlink:href="#ArialMT-83"/>
      <use x="138.916016" xlink:href="#ArialMT-32"/>
      <use x="166.699219" xlink:href="#ArialMT-40"/>
      <use x="200" xlink:href="#ArialMT-50"/>
      <use x="255.615234" xlink:href="#ArialMT-53"/>
      <use x="311.230469" xlink:href="#ArialMT-53"/>
      <use x="366.845703" xlink:href="#ArialMT-44"/>
      <use x="394.628906" xlink:href="#ArialMT-32"/>
      <use x="422.412109" xlink:href="#ArialMT-50"/>
      <use x="478.027344" xlink:href="#ArialMT-52"/>
      <use x="533.642578" xlink:href="#ArialMT-55"/>
      <use x="589.257812" xlink:href="#ArialMT-41"/>
     </g>
    </g>
    <g id="line2d_48">
     <path d="M 279.623281 140.997969 
L 301.623281 140.997969 
" style="fill:none;stroke:#55a868;stroke-linecap:round;stroke-width:1.5;"/>
    </g>
    <g id="line2d_49"/>
    <g id="text_28">
     <!-- RS (255, 225) -->
     <g style="fill:#262626;" transform="translate(310.423281 144.847969)scale(0.11 -0.11)">
      <use xlink:href="#ArialMT-82"/>
      <use x="72.216797" xlink:href="#ArialMT-83"/>
      <use x="138.916016" xlink:href="#ArialMT-32"/>
      <use x="166.699219" xlink:href="#ArialMT-40"/>
      <use x="200" xlink:href="#ArialMT-50"/>
      <use x="255.615234" xlink:href="#ArialMT-53"/>
      <use x="311.230469" xlink:href="#ArialMT-53"/>
      <use x="366.845703" xlink:href="#ArialMT-44"/>
      <use x="394.628906" xlink:href="#ArialMT-32"/>
      <use x="422.412109" xlink:href="#ArialMT-50"/>
      <use x="478.027344" xlink:href="#ArialMT-50"/>
      <use x="533.642578" xlink:href="#ArialMT-53"/>
      <use x="589.257812" xlink:href="#ArialMT-41"/>
     </g>
    </g>
    <g id="line2d_50">
     <path d="M 279.623281 156.820781 
L 301.623281 156.820781 
" style="fill:none;stroke:#c44e52;stroke-linecap:round;stroke-width:1.5;"/>
    </g>
    <g id="line2d_51"/>
    <g id="text_29">
     <!-- RS (240, 200) -->
     <g style="fill:#262626;" transform="translate(310.423281 160.670781)scale(0.11 -0.11)">
      <use xlink:href="#ArialMT-82"/>
      <use x="72.216797" xlink:href="#ArialMT-83"/>
      <use x="138.916016" xlink:href="#ArialMT-32"/>
      <use x="166.699219" xlink:href="#ArialMT-40"/>
      <use x="200" xlink:href="#ArialMT-50"/>
      <use x="255.615234" xlink:href="#ArialMT-52"/>
      <use x="311.230469" xlink:href="#ArialMT-48"/>
      <use x="366.845703" xlink:href="#ArialMT-44"/>
      <use x="394.628906" xlink:href="#ArialMT-32"/>
      <use x="422.412109" xlink:href="#ArialMT-50"/>
      <use x="478.027344" xlink:href="#ArialMT-48"/>
      <use x="533.642578" xlink:href="#ArialMT-48"/>
      <use x="589.257812" xlink:href="#ArialMT-41"/>
     </g>
    </g>
    <g id="line2d_52">
     <path d="M 279.623281 172.643594 
L 301.623281 172.643594 
" style="fill:none;stroke:#8172b3;stroke-linecap:round;stroke-width:1.5;"/>
    </g>
    <g id="line2d_53"/>
    <g id="text_30">
     <!-- RS (255, 205) -->
     <g style="fill:#262626;" transform="translate(310.423281 176.493594)scale(0.11 -0.11)">
      <use xlink:href="#ArialMT-82"/>
      <use x="72.216797" xlink:href="#ArialMT-83"/>
      <use x="138.916016" xlink:href="#ArialMT-32"/>
      <use x="166.699219" xlink:href="#ArialMT-40"/>
      <use x="200" xlink:href="#ArialMT-50"/>
      <use x="255.615234" xlink:href="#ArialMT-53"/>
      <use x="311.230469" xlink:href="#ArialMT-53"/>
      <use x="366.845703" xlink:href="#ArialMT-44"/>
      <use x="394.628906" xlink:href="#ArialMT-32"/>
      <use x="422.412109" xlink:href="#ArialMT-50"/>
      <use x="478.027344" xlink:href="#ArialMT-48"/>
      <use x="533.642578" xlink:href="#ArialMT-53"/>
      <use x="589.257812" xlink:href="#ArialMT-41"/>
     </g>
    </g>
    <g id="line2d_54">
     <path d="M 279.623281 188.466406 
L 301.623281 188.466406 
" style="fill:none;stroke:#937860;stroke-linecap:round;stroke-width:1.5;"/>
    </g>
    <g id="line2d_55"/>
    <g id="text_31">
     <!-- RS (360, 280) -->
     <g style="fill:#262626;" transform="translate(310.423281 192.316406)scale(0.11 -0.11)">
      <use xlink:href="#ArialMT-82"/>
      <use x="72.216797" xlink:href="#ArialMT-83"/>
      <use x="138.916016" xlink:href="#ArialMT-32"/>
      <use x="166.699219" xlink:href="#ArialMT-40"/>
      <use x="200" xlink:href="#ArialMT-51"/>
      <use x="255.615234" xlink:href="#ArialMT-54"/>
      <use x="311.230469" xlink:href="#ArialMT-48"/>
      <use x="366.845703" xlink:href="#ArialMT-44"/>
      <use x="394.628906" xlink:href="#ArialMT-32"/>
      <use x="422.412109" xlink:href="#ArialMT-50"/>
      <use x="478.027344" xlink:href="#ArialMT-56"/>
      <use x="533.642578" xlink:href="#ArialMT-48"/>
      <use x="589.257812" xlink:href="#ArialMT-41"/>
     </g>
    </g>
    <g id="line2d_56">
     <path d="M 279.623281 204.289219 
L 301.623281 204.289219 
" style="fill:none;stroke:#da8bc3;stroke-linecap:round;stroke-width:1.5;"/>
    </g>
    <g id="line2d_57"/>
    <g id="text_32">
     <!-- RS (255, 185) -->
     <g style="fill:#262626;" transform="translate(310.423281 208.139219)scale(0.11 -0.11)">
      <use xlink:href="#ArialMT-82"/>
      <use x="72.216797" xlink:href="#ArialMT-83"/>
      <use x="138.916016" xlink:href="#ArialMT-32"/>
      <use x="166.699219" xlink:href="#ArialMT-40"/>
      <use x="200" xlink:href="#ArialMT-50"/>
      <use x="255.615234" xlink:href="#ArialMT-53"/>
      <use x="311.230469" xlink:href="#ArialMT-53"/>
      <use x="366.845703" xlink:href="#ArialMT-44"/>
      <use x="394.628906" xlink:href="#ArialMT-32"/>
      <use x="422.412109" xlink:href="#ArialMT-49"/>
      <use x="478.027344" xlink:href="#ArialMT-56"/>
      <use x="533.642578" xlink:href="#ArialMT-53"/>
      <use x="589.257812" xlink:href="#ArialMT-41"/>
     </g>
    </g>
    <g id="line2d_58">
     <path d="M 279.623281 220.112031 
L 301.623281 220.112031 
" style="fill:none;stroke:#8c8c8c;stroke-linecap:round;stroke-width:1.5;"/>
    </g>
    <g id="line2d_59"/>
    <g id="text_33">
     <!-- RS (255, 165) -->
     <g style="fill:#262626;" transform="translate(310.423281 223.962031)scale(0.11 -0.11)">
      <use xlink:href="#ArialMT-82"/>
      <use x="72.216797" xlink:href="#ArialMT-83"/>
      <use x="138.916016" xlink:href="#ArialMT-32"/>
      <use x="166.699219" xlink:href="#ArialMT-40"/>
      <use x="200" xlink:href="#ArialMT-50"/>
      <use x="255.615234" xlink:href="#ArialMT-53"/>
      <use x="311.230469" xlink:href="#ArialMT-53"/>
      <use x="366.845703" xlink:href="#ArialMT-44"/>
      <use x="394.628906" xlink:href="#ArialMT-32"/>
      <use x="422.412109" xlink:href="#ArialMT-49"/>
      <use x="478.027344" xlink:href="#ArialMT-54"/>
      <use x="533.642578" xlink:href="#ArialMT-53"/>
      <use x="589.257812" xlink:href="#ArialMT-41"/>
     </g>
    </g>
    <g id="line2d_60">
     <path d="M 279.623281 235.934844 
L 301.623281 235.934844 
" style="fill:none;stroke:#ccb974;stroke-linecap:round;stroke-width:1.5;"/>
    </g>
    <g id="line2d_61"/>
    <g id="text_34">
     <!-- RS (400, 240) -->
     <g style="fill:#262626;" transform="translate(310.423281 239.784844)scale(0.11 -0.11)">
      <use xlink:href="#ArialMT-82"/>
      <use x="72.216797" xlink:href="#ArialMT-83"/>
      <use x="138.916016" xlink:href="#ArialMT-32"/>
      <use x="166.699219" xlink:href="#ArialMT-40"/>
      <use x="200" xlink:href="#ArialMT-52"/>
      <use x="255.615234" xlink:href="#ArialMT-48"/>
      <use x="311.230469" xlink:href="#ArialMT-48"/>
      <use x="366.845703" xlink:href="#ArialMT-44"/>
      <use x="394.628906" xlink:href="#ArialMT-32"/>
      <use x="422.412109" xlink:href="#ArialMT-50"/>
      <use x="478.027344" xlink:href="#ArialMT-52"/>
      <use x="533.642578" xlink:href="#ArialMT-48"/>
      <use x="589.257812" xlink:href="#ArialMT-41"/>
     </g>
    </g>
   </g>
  </g>
 </g>
 <defs>
  <clipPath id="pa2e9dc0fc4">
   <rect height="217.44" width="334.8" x="54" y="34.56"/>
  </clipPath>
 </defs>
</svg>
